<?xml version="1.0" encoding="utf-8"?>
<!-- Generator: Adobe Illustrator 18.1.1, SVG Export Plug-In . SVG Version: 6.00 Build 0)  -->
<!DOCTYPE svg PUBLIC "-//W3C//DTD SVG 1.1//EN" "http://www.w3.org/Graphics/SVG/1.1/DTD/svg11.dtd">
<svg version="1.1" id="Layer_1" xmlns="http://www.w3.org/2000/svg" xmlns:xlink="http://www.w3.org/1999/xlink" x="0px" y="0px"
	 viewBox="0 0 360 360" enable-background="new 0 0 360 360" xml:space="preserve">
<g>
	<g>
		<g>
			<path fill="#C0E7F3" d="M98.2,306.1c-7.1,3.7-13,0.2-13-7.9c0,0,0-24.8,0-38c0-4,1-7.6,2.9-10.9c1.9-3.3,5.2-6,9.9-8.1
				c22.9-10.7,68.8-32.4,91.5-43.1c4.4-2.1,27.1-12.5,27.1-13.6c0-0.8-20.7-10.7-29.9-15.1c-22.6-10.8-66.5-31.6-88.7-41.9
				c-4.7-2.2-8-4.9-9.9-8.1c-1.9-3.3-2.9-6.8-2.9-10.6c0-13.2,0-38,0-38c0-8.1,5.8-11.6,13-7.9l191.4,99.9c7.1,3.7,13,13.4,13,21.4
				v0.3c0,8.1-5.8,17.7-13,21.4L98.2,306.1z"/>
		</g>
	</g>
</g>
</svg>
