<?xml version="1.0" encoding="utf-8"?>
<!-- Generator: Adobe Illustrator 18.1.1, SVG Export Plug-In . SVG Version: 6.00 Build 0)  -->
<!DOCTYPE svg PUBLIC "-//W3C//DTD SVG 1.1//EN" "http://www.w3.org/Graphics/SVG/1.1/DTD/svg11.dtd">
<svg version="1.1" id="Layer_1" xmlns="http://www.w3.org/2000/svg" xmlns:xlink="http://www.w3.org/1999/xlink" x="0px" y="0px"
	 viewBox="0 0 360 360" enable-background="new 0 0 360 360" xml:space="preserve">
<g>
	<g>
		<g>
			<path fill="#C0E7F3" d="M90.5,301.1c-8,4.1-14.6,0.8-14.6-7.3c0,0,0,0,0-4.9c0-2.2,0.6-4.2,1.8-5.9c1.2-1.7,3.2-3.3,5.7-4.5
				c42.2-21.3,126.4-64.5,169.1-84.7c7.2-3.4,18.6-8.4,18.5-8.8c0-0.4-15.1-7.1-19-9C209.8,155.2,125.5,113.7,83.8,92
				c-5.3-2.8-7.9-6.4-7.9-10.6c0-4.9,0-4.9,0-4.9c0-8.2,6.6-11.5,14.6-7.3c0,0,169.8,87,213.6,109.7c5,2.6,4.6,10.1,0,12.5
				C248.2,219.9,90.5,301.1,90.5,301.1z"/>
		</g>
	</g>
</g>
</svg>
