<?xml version="1.0" encoding="utf-8"?>
<!-- Generator: Adobe Illustrator 18.1.1, SVG Export Plug-In . SVG Version: 6.00 Build 0)  -->
<!DOCTYPE svg PUBLIC "-//W3C//DTD SVG 1.1//EN" "http://www.w3.org/Graphics/SVG/1.1/DTD/svg11.dtd">
<svg version="1.1" id="Layer_1" xmlns="http://www.w3.org/2000/svg" xmlns:xlink="http://www.w3.org/1999/xlink" x="0px" y="0px"
	 viewBox="38.3 35.7 65.4 72" enable-background="new 38.3 35.7 65.4 72" xml:space="preserve">
<g>
	<circle fill="#FEF7B4" cx="71" cy="68.4" r="32.7"/>
	<circle fill="#123759" cx="71" cy="68.5" r="31.2"/>
	<polygon fill="#FEF7B4" points="70.9,74.6 79.3,89.2 71.2,87.7 86.3,107.7 82.7,95.1 89.5,97.6 81.9,72.8 	"/>
	<g>
		<path fill="#A1DBE5" d="M83.3,97c-0.3-0.6-0.5-1.2-0.7-1.9l-0.1-0.3l0.3,0.1c0.4,0.1,0.8,0.3,1.2,0.5c0.4,0.2,0.8,0.4,1.2,0.6
			c-0.4-0.1-0.9-0.2-1.3-0.3c-0.4-0.1-0.8-0.3-1.3-0.4l0.2-0.2C83.1,95.7,83.2,96.4,83.3,97z"/>
	</g>
	<g>
		<path fill="#A1DBE5" d="M88.5,94.2c-0.6-1.8-1.2-3.5-1.8-5.3c-0.6-1.8-1.2-3.5-1.8-5.3l-1.7-5.3c-0.6-1.8-1.2-3.5-1.7-5.3l0.5,0.3
			l-11,1.8l0.4-0.8c1.4,2.4,2.8,4.9,4.2,7.3l4.2,7.3l0.5,0.9l-1-0.2c-2.7-0.5-5.4-1.1-8.1-1.6l0.3-0.5c1.3,1.8,2.6,3.6,3.9,5.4
			s2.6,3.6,3.8,5.4c-1.4-1.7-2.8-3.4-4.1-5.1c-1.4-1.7-2.7-3.5-4.1-5.2l-0.5-0.7l0.9,0.1c2.7,0.5,5.4,0.9,8.2,1.4l-0.5,0.7l-4.3-7.3
			c-1.4-2.4-2.9-4.9-4.2-7.3l-0.4-0.7l0.8-0.1l11-1.7l0.4-0.1l0.1,0.4c0.6,1.8,1.1,3.6,1.6,5.4l1.6,5.4c0.5,1.8,1,3.6,1.5,5.4
			C87.5,90.6,88,92.4,88.5,94.2z"/>
	</g>
	<path fill="#77B8B7" d="M92.8,71.2c1.1-1.7,1.6-3.8,1.4-6c-0.2-1.9-1-3.5-2.2-4.8c0-0.6,0-1.2-0.1-1.7c-0.5-3.9-3.3-6.8-6.7-7.4
		c-1.6-2.7-4.6-4.4-7.7-4c-0.5,0.1-1,0.2-1.5,0.3c-1.5-1.1-3.4-1.7-5.4-1.4c-1.7,0.2-3.1,1-4.3,2.1c-1.3-0.6-2.7-0.9-4.2-0.7
		c-2.8,0.3-5,2.2-6.1,4.7c-0.2,0-0.3,0-0.5,0c-3.8,0.5-5.1,4.7-5.3,8.6c-3,1.2-4.9,3.3-5,6.5c-0.1,4.8,3.4,6.8,6.6,7.4
		c1.8,0.3,5.4,0,6.6-1.3c1.5,0.9,3.2,1.4,5,1.1c1.6-0.2,3.1-0.9,4.3-2c3.6,8.5,10,8.3,14.5,8.5c1.6,0.1,4.5-1.2,5.8-2.4
		C90.9,77.2,93.1,74.8,92.8,71.2z"/>
	<g>
		<path fill="#A1DBE5" d="M71.6,46.1c1.6,0,3.2,0.5,4.5,1.5c0.5-0.2,1-0.3,1.5-0.3c0.3,0,0.6-0.1,0.9-0.1c2.8,0,5.4,1.6,6.8,4
			c3.4,0.6,6.2,3.5,6.7,7.4c0.1,0.6,0.1,1.2,0.1,1.7c1.1,1.3,1.9,2.9,2.2,4.8c0.3,2.2-0.3,4.3-1.4,6c0.3,3.6-1.9,6-4.9,7.4
			c-1.3,1.2-4,2.5-5.6,2.5h-0.1c-4.5-0.2-10.9,0-14.5-8.5c-1.1,1.1-2.6,1.8-4.3,2c-0.3,0-0.6,0.1-0.9,0.1c-1.5,0-2.8-0.4-4.1-1.2
			c-0.9,1-3.3,1.4-5.1,1.4c-0.5,0-1,0-1.4-0.1c-3.2-0.6-6.7-2.5-6.6-7.4c0.1-3.2,2-5.3,5-6.5c0.2-4,1.5-8.2,5.3-8.6
			c0.2,0,0.3,0,0.5,0c1.1-2.5,3.4-4.3,6.1-4.7c0.3,0,0.6-0.1,0.9-0.1c1.2,0,2.3,0.3,3.3,0.8c1.2-1.1,2.6-1.9,4.3-2.1
			C71,46.1,71.3,46.1,71.6,46.1 M71.6,45L71.6,45c-0.4,0-0.7,0-1.1,0.1c-1.6,0.2-3.1,0.8-4.4,1.9c-1-0.4-2-0.6-3.1-0.6
			c-0.4,0-0.7,0-1.1,0.1c-2.8,0.4-5.3,2.1-6.7,4.7c-3.5,0.5-5.7,3.7-6.1,9c-3.2,1.5-4.9,4-5,7.3C44,72,46.8,75.1,51.6,76
			c0.5,0.1,1,0.1,1.6,0.1c1.7,0,3.8-0.3,5.2-1.2c1.2,0.6,2.6,1,4,1c0.4,0,0.7,0,1.1-0.1c1.3-0.2,2.6-0.6,3.7-1.4
			c3.8,7.5,10,7.7,14.2,7.8h0.7c0.1,0,0.1,0,0.2,0c1.9,0,4.8-1.4,6.3-2.6c3.6-1.8,5.5-4.6,5.4-8c1.1-1.9,1.6-4.1,1.3-6.4
			c-0.2-1.9-1-3.6-2.1-5.1c0-0.5,0-1-0.1-1.5c-0.5-4-3.4-7.4-7.1-8.2c-1.7-2.6-4.5-4.2-7.5-4.2c-0.4,0-0.7,0-1.1,0.1
			c-0.4,0-0.8,0.1-1.1,0.2C74.8,45.5,73.2,45,71.6,45L71.6,45z"/>
	</g>
	<path fill="#2B8D90" d="M67.7,72.7c3.5,8.5,10.2,8.2,14.6,8.4c1.6,0.1,4.9-0.7,5.6-2.4c2.9-0.4,5.2-3.9,4.9-7.5
		c1.1-1.7,1.6-3.8,1.3-6c-0.2-1.9-1-3.5-2.2-4.8c0-0.6,0-1.2-0.1-1.7c-0.5-3.9-3.3-6.8-6.7-7.4c0,0,6.7,4.7,4.6,9.7
		c0.8,1,2,3.5-0.5,6.4c1.2,2.2-0.3,6-3.7,5.6c0.7,3.4-1.7,7.4-6.6,4.7C75.3,80.7,70.1,76.1,67.7,72.7z"/>
</g>
</svg>
