<?xml version="1.0" encoding="utf-8"?>
<!-- Generator: Adobe Illustrator 18.1.1, SVG Export Plug-In . SVG Version: 6.00 Build 0)  -->
<!DOCTYPE svg PUBLIC "-//W3C//DTD SVG 1.1//EN" "http://www.w3.org/Graphics/SVG/1.1/DTD/svg11.dtd">
<svg version="1.1" id="Layer_1" xmlns="http://www.w3.org/2000/svg" xmlns:xlink="http://www.w3.org/1999/xlink" x="0px" y="0px"
	 viewBox="33.5 28.7 78.8 76.2" enable-background="new 33.5 28.7 78.8 76.2" xml:space="preserve">
<g>
	<g>
		<path fill="#FEF7B4" d="M104.8,30.3c2.5,0,4.6,2.1,4.6,4.6v62.7c0,2.5-2.1,4.6-4.6,4.6H42c-2.5,0-4.6-2.1-4.6-4.6V34.9
			c0-2.5,2.1-4.6,4.6-4.6L104.8,30.3 M104.8,28.7H42c-3.4,0-6.2,2.8-6.2,6.2v62.7c0,3.4,2.8,6.2,6.2,6.2h62.7c3.4,0,6.2-2.8,6.2-6.2
			V34.9C111,31.5,108.2,28.7,104.8,28.7L104.8,28.7z"/>
	</g>
	<path fill="#123759" d="M104.8,102.3H42c-2.5,0-4.6-2.1-4.6-4.6V34.9c0-2.5,2.1-4.6,4.6-4.6h62.7c2.5,0,4.6,2.1,4.6,4.6v62.7
		C109.4,100.2,107.3,102.3,104.8,102.3z"/>
	<path fill="#A1DBE5" d="M109.4,84.1v14c0,1.2-1.5,4.1-4.1,4.1H42c-3,0.1-4.6-2.9-4.6-4.1V84C37.4,84,109.6,84.1,109.4,84.1z"/>
	<g>
		<path fill="#77B8B7" d="M63.8,87.4c0,1,0.8,1.9,1.9,1.9h34.2c1,0,1.9-0.8,1.9-1.9v-49c0-1-0.8-1.9-1.9-1.9H65.7
			c-1,0-1.9,0.8-1.9,1.9C63.8,38.4,63.8,87.4,63.8,87.4z"/>
	</g>
	<path fill="#A1DBE5" d="M64.4,37l36.9,51.6c0,0,0.5-0.6,0.5-1.2c0-0.5,0-49.3,0-49.3s-0.2-1.7-1.9-1.7c-1.7,0-34,0-34,0
		S65,36.5,64.4,37z"/>
	<g>
		<path fill="#77B8B7" d="M63.8,87.8c0,1,0.8,1.9,1.9,1.9h34.2c1,0,1.9-0.8,1.9-1.9V38.4c0-1-0.8-1.9-1.9-1.9H65.7
			c-1,0-1.9,0.8-1.9,1.9C63.8,38.4,63.8,87.8,63.8,87.8z"/>
	</g>
	<g>
		<path fill="#2B8D90" d="M63.8,63.3h23.3c0.9,0,1.6,0.7,1.6,1.6v23.3c0,0.9-0.7,1.6-1.6,1.6H63.3"/>
	</g>
	<g>
		
			<line fill="none" stroke="#123759" stroke-width="0.5308" stroke-linecap="round" stroke-miterlimit="10" x1="71.2" y1="59.7" x2="94.4" y2="59.7"/>
		
			<line fill="none" stroke="#123759" stroke-width="0.5308" stroke-linecap="round" stroke-miterlimit="10" x1="71.2" y1="55" x2="76.3" y2="55"/>
		
			<line fill="none" stroke="#123759" stroke-width="0.5308" stroke-linecap="round" stroke-miterlimit="10" x1="71.2" y1="61.1" x2="94.4" y2="61.1"/>
		
			<line fill="none" stroke="#123759" stroke-width="0.5308" stroke-linecap="round" stroke-miterlimit="10" x1="71.2" y1="62.7" x2="94.4" y2="62.7"/>
		
			<line fill="none" stroke="#123759" stroke-width="0.5308" stroke-linecap="round" stroke-miterlimit="10" x1="71.2" y1="64.4" x2="94.4" y2="64.4"/>
		
			<line fill="none" stroke="#123759" stroke-width="0.5308" stroke-linecap="round" stroke-miterlimit="10" x1="71.2" y1="65.9" x2="94.4" y2="65.9"/>
		
			<line fill="none" stroke="#123759" stroke-width="0.5308" stroke-linecap="round" stroke-miterlimit="10" x1="71.2" y1="67.4" x2="94.4" y2="67.4"/>
		
			<line fill="none" stroke="#123759" stroke-width="0.5308" stroke-linecap="round" stroke-miterlimit="10" x1="71.2" y1="68.8" x2="94.4" y2="68.8"/>
		
			<line fill="none" stroke="#123759" stroke-width="0.5308" stroke-linecap="round" stroke-miterlimit="10" x1="71.2" y1="70.2" x2="94.4" y2="70.2"/>
		
			<line fill="none" stroke="#123759" stroke-width="0.5308" stroke-linecap="round" stroke-miterlimit="10" x1="94.4" y1="71.8" x2="71.2" y2="71.8"/>
	</g>
	<g>
		<path fill="#77B8B7" d="M87.1,88c0,1-0.8,1.7-1.7,1.7H49.7c-1,0-1.7-0.8-1.7-1.7V66.3c0-1,0.8-1.7,1.7-1.7h35.7
			c1,0,1.7,0.8,1.7,1.7V88z"/>
	</g>
	<g>
		<path fill="#2B8D90" d="M42.4,87.6c-0.6,0.5-0.5,1.1,0.3,1.3l17,4.9c0.8,0.2,1.9,0.1,2.6-0.3L70,89c0.7-0.4,0.6-0.9-0.1-1.1
			l-19.4-5.5c-0.8-0.2-1.9,0-2.5,0.5L42.4,87.6z"/>
	</g>
	<g>
		<path fill="#123759" d="M41.5,88.4c-0.7,0.4-0.6,1,0.2,1.2l17.3,5c0.8,0.2,1.9,0.1,2.6-0.3l7.7-4.4c0.7-0.4,0.6-0.9-0.1-1.2
			L51.5,83c-0.8-0.2-1.9-0.1-2.6,0.4L41.5,88.4z"/>
	</g>
	<g>
		<path fill="#77B8B7" d="M41.5,87.7c-0.7,0.4-0.6,0.9,0.1,1.1l17.3,5c0.8,0.2,1.9,0.1,2.6-0.3l6.6-3.7c0.7-0.4,0.6-0.9-0.1-1.1
			l-17.7-5.1c-0.8-0.2-1.9-0.1-2.6,0.3L41.5,87.7z"/>
	</g>
	<polyline fill="#2B8D90" points="51.6,64.5 68.3,80.1 85.9,64.6 	"/>
	
		<polyline fill="#FDF7B6" stroke="#123759" stroke-width="0.5308" stroke-linecap="round" stroke-linejoin="round" stroke-miterlimit="10" points="
		49.5,64.5 66.8,79.5 85.8,64.6 	"/>
	<g>
		<path fill="#2B8D90" d="M42.3,86c-0.6,0.5-0.5,1.1,0.3,1.3l17.1,4.9c0.8,0.2,1.9,0.1,2.6-0.3l7.7-4.6c0.7-0.4,0.6-0.9-0.1-1.1
			l-19.4-5.5c-0.8-0.2-1.9,0-2.5,0.5L42.3,86z"/>
	</g>
	<g>
		<path fill="#123759" d="M41.5,86.8c-0.7,0.4-0.6,1,0.2,1.2L59,93c0.8,0.2,1.9,0.1,2.6-0.3l7.7-4.4c0.7-0.4,0.6-0.9-0.1-1.2
			l-17.7-5.7c-0.8-0.2-1.9-0.1-2.6,0.4L41.5,86.8z"/>
	</g>
	<g>
		<path fill="#77B8B7" d="M41.5,86.1c-0.7,0.4-0.6,0.9,0.1,1.1l17.3,5c0.8,0.2,1.9,0.1,2.6-0.3l6.6-3.7c0.7-0.4,0.6-0.9-0.1-1.1
			L50.5,82c-0.8-0.2-1.9-0.1-2.6,0.3L41.5,86.1z"/>
	</g>
	<g>
		<path fill="#2B8D90" d="M42.3,84.5c-0.6,0.5-0.5,1.1,0.3,1.3l17,4.9c0.8,0.2,1.9,0.1,2.6-0.3l7.7-4.6c0.7-0.4,0.6-0.9-0.1-1.1
			l-19.4-5.5c-0.8-0.2-1.9,0-2.5,0.5L42.3,84.5z"/>
	</g>
	<g>
		<path fill="#123759" d="M41.5,85.2c-0.7,0.4-0.6,1,0.2,1.2l17.3,5c0.8,0.2,1.9,0.1,2.6-0.3l7.7-4.4c0.7-0.4,0.6-0.9-0.1-1.2
			l-17.7-5.7c-0.8-0.2-1.9-0.1-2.6,0.4L41.5,85.2z"/>
	</g>
	<g>
		<path fill="#77B8B7" d="M41.5,84.5c-0.7,0.4-0.6,0.9,0.1,1.1l17.3,5c0.8,0.2,1.9,0.1,2.6-0.3l6.6-3.7c0.7-0.4,0.6-0.9-0.1-1.1
			l-17.7-5.1c-0.8-0.2-1.9-0.1-2.6,0.3L41.5,84.5z"/>
	</g>
	<g>
		<path fill="#2B8D90" d="M42.4,83.1c-0.6,0.5-0.5,1.1,0.3,1.4l16.9,4.8c0.8,0.2,1.9,0.1,2.6-0.3l7.7-4.6c0.7-0.4,0.6-0.9-0.1-1.1
			l-19.4-5.5c-0.8-0.2-1.9,0-2.5,0.6L42.4,83.1z"/>
	</g>
	<g>
		<path fill="#123759" d="M41.4,83.7c-0.6,0.5-0.5,1,0.2,1.2l17.3,5c0.8,0.2,1.9,0.1,2.6-0.3l7.7-4.5c0.7-0.4,0.6-0.9-0.1-1.2
			L51.4,78c-0.8-0.2-1.9-0.1-2.5,0.4L41.4,83.7z"/>
	</g>
	<g>
		<path fill="#77B8B7" d="M41.5,83c-0.7,0.4-0.6,0.9,0.1,1.1l17.3,5c0.8,0.2,1.9,0.1,2.6-0.3l6.6-3.7c0.7-0.4,0.6-0.9-0.1-1.1
			l-17.5-5c-0.8-0.2-1.9-0.1-2.6,0.3L41.5,83z"/>
	</g>
	<g>
		<path fill="#2B8D90" d="M42.7,81.6c-0.6,0.5-0.5,1.1,0.3,1.4l16.6,4.9c0.8,0.2,1.9,0.1,2.6-0.3l7.7-4.6c0.7-0.4,0.6-0.9-0.1-1.1
			l-19.2-5.5c-0.8-0.2-1.9,0-2.5,0.5L42.7,81.6z"/>
	</g>
	<g>
		<path fill="#123759" d="M40.7,82c-0.6,0.5-0.6,1,0.2,1.2L59,88.5c0.8,0.2,1.9,0.1,2.6-0.3l7.7-4.6c0.7-0.4,0.6-0.9-0.1-1.1
			L49.9,77c-0.8-0.2-1.9,0-2.6,0.4L40.7,82z"/>
	</g>
	<g>
		<path fill="#77B8B7" d="M41.5,81.5c-0.7,0.4-0.6,0.9,0.1,1.1l17.3,5c0.8,0.2,1.9,0.1,2.6-0.3l6.6-3.7c0.7-0.4,0.6-0.9-0.1-1.1
			l-17.8-5.1c-0.8-0.2-1.9-0.1-2.6,0.3L41.5,81.5z"/>
	</g>
	
		<line fill="none" stroke="#123759" stroke-width="0.4293" stroke-linecap="round" stroke-miterlimit="10" x1="43.7" y1="81.8" x2="48.7" y2="83.2"/>
	
		<line fill="none" stroke="#123759" stroke-width="0.4293" stroke-linecap="round" stroke-miterlimit="10" x1="44.8" y1="81.2" x2="49.8" y2="82.6"/>
	
		<line fill="none" stroke="#123759" stroke-width="0.4293" stroke-linecap="round" stroke-miterlimit="10" x1="45.6" y1="80.4" x2="50.7" y2="81.9"/>
	<g>
		<path fill="#FDF7B6" d="M63.8,84.7c-0.1,0.1-0.3,0.1-0.5,0L58,83.1c-0.1,0-0.1-0.1,0-0.2l2.1-1.2c0.1-0.1,0.3-0.1,0.5-0.1l5.6,1.7
			c0.1,0,0.1,0.1,0,0.2L63.8,84.7z"/>
		
			<path fill="none" stroke="#123759" stroke-width="0.4293" stroke-linecap="round" stroke-linejoin="round" stroke-miterlimit="10" d="
			M63.8,84.7c-0.1,0.1-0.3,0.1-0.5,0L58,83.1c-0.1,0-0.1-0.1,0-0.2l2.1-1.2c0.1-0.1,0.3-0.1,0.5-0.1l5.6,1.7c0.1,0,0.1,0.1,0,0.2
			L63.8,84.7z"/>
	</g>
	<path fill="none" stroke="#A1DBE5" stroke-width="0.4664" stroke-miterlimit="10" d="M112.3,65.8"/>
	<path fill="none" stroke="#A1DBE5" stroke-width="0.4664" stroke-miterlimit="10" d="M74.9,69"/>
	<g>
		<path fill="#FDF7B6" d="M81.9,45.6c0,0.2-0.2,0.3-0.3,0.3h-9.7c-0.2,0-0.3-0.2-0.3-0.3v-5.8c0-0.2,0.2-0.3,0.3-0.3h9.7
			c0.2,0,0.3,0.2,0.3,0.3V45.6z"/>
		
			<path fill="none" stroke="#123759" stroke-width="0.5308" stroke-linecap="round" stroke-linejoin="round" stroke-miterlimit="10" d="
			M81.9,45.6c0,0.2-0.2,0.3-0.3,0.3h-9.7c-0.2,0-0.3-0.2-0.3-0.3v-5.8c0-0.2,0.2-0.3,0.3-0.3h9.7c0.2,0,0.3,0.2,0.3,0.3V45.6z"/>
	</g>
	<g>
		
			<line fill="none" stroke="#123759" stroke-width="0.5308" stroke-linecap="round" stroke-miterlimit="10" x1="85.4" y1="41.2" x2="94.3" y2="41.2"/>
		
			<line fill="none" stroke="#123759" stroke-width="0.5308" stroke-linecap="round" stroke-miterlimit="10" x1="85.4" y1="42.6" x2="94.3" y2="42.6"/>
		
			<line fill="none" stroke="#123759" stroke-width="0.5308" stroke-linecap="round" stroke-miterlimit="10" x1="85.4" y1="44.1" x2="94.3" y2="44.1"/>
	</g>
	
		<line fill="none" stroke="#123759" stroke-width="0.5308" stroke-linecap="round" stroke-linejoin="round" stroke-miterlimit="10" x1="71.7" y1="45.7" x2="81.7" y2="39.6"/>
	
		<line fill="none" stroke="#123759" stroke-width="0.5308" stroke-linecap="round" stroke-linejoin="round" stroke-miterlimit="10" x1="71.7" y1="39.6" x2="81.7" y2="45.7"/>
	
		<line fill="none" stroke="#123759" stroke-width="0.4293" stroke-linecap="round" stroke-linejoin="round" stroke-miterlimit="10" x1="60.5" y1="81.6" x2="63.5" y2="84.6"/>
	
		<line fill="none" stroke="#123759" stroke-width="0.4293" stroke-linecap="round" stroke-linejoin="round" stroke-miterlimit="10" x1="58" y1="83" x2="66.1" y2="83.3"/>
</g>
</svg>
