<?xml version="1.0" encoding="utf-8"?>
<!-- Generator: Adobe Illustrator 18.1.1, SVG Export Plug-In . SVG Version: 6.00 Build 0)  -->
<!DOCTYPE svg PUBLIC "-//W3C//DTD SVG 1.1//EN" "http://www.w3.org/Graphics/SVG/1.1/DTD/svg11.dtd">
<svg version="1.1" id="Layer_1" xmlns="http://www.w3.org/2000/svg" xmlns:xlink="http://www.w3.org/1999/xlink" x="0px" y="0px"
	 viewBox="42.9 34.9 66.2 72.1" enable-background="new 42.9 34.9 66.2 72.1" xml:space="preserve">
<g>
	<circle fill="#FEF7B4" cx="76" cy="73.9" r="33.1"/>
	<circle fill="#123759" cx="76" cy="74" r="31.5"/>
	<path fill="#2B8D90" d="M76.3,34.9c-1.2,0-2.3,1.2-3.7,2.7c-2.4,2.6-4.5,5.4-6.2,8.5c-4.7,8.1-6.4,17.7-2.8,26.5
		c1.8,4.5,4.9,8.5,8.3,11.9c1.4,1.3,6.1,1.4,7.5,0C87.3,76.7,92,66.2,89.3,55c-1.6-7-5.7-13.6-10.7-18.7
		C77.8,35.3,77,34.9,76.3,34.9z"/>
	<g>
		<path fill="#2B8D90" d="M63,84.6c-0.9,0.2-1.5-0.4-1.3-1.3L65,69.7c0.2-0.9,0.9-1.1,1.6-0.4l9.2,10.6c0.6,0.7,0.4,1.5-0.6,1.8
			L63,84.6z"/>
	</g>
	<g>
		<path fill="#2B8D90" d="M89,84.6c0.9,0.2,1.5-0.4,1.3-1.3L87,69.7c-0.2-0.9-0.9-1.1-1.6-0.4l-9.2,10.6c-0.6,0.7-0.4,1.5,0.6,1.8
			L89,84.6z"/>
	</g>
	<path fill="#77B8B7" d="M75.5,85.5c1.7,0.1,3.5-0.1,4.3-0.9c7.9-7.8,12.6-18.3,9.9-29.5c-1.6-7-5.7-13.6-10.7-18.8
		c-0.9-0.9-1.8-1.4-2.5-1.4"/>
	<circle fill="#123759" cx="76" cy="55.4" r="4.9"/>
	<g>
		
			<line fill="none" stroke="#FEF7B4" stroke-width="1.4335" stroke-linecap="round" stroke-miterlimit="10" x1="72.6" y1="87.6" x2="72.6" y2="96.5"/>
		
			<line fill="none" stroke="#FEF7B4" stroke-width="1.4335" stroke-linecap="round" stroke-miterlimit="10" x1="76" y1="87.6" x2="76" y2="101.5"/>
		
			<line fill="none" stroke="#FEF7B4" stroke-width="1.4335" stroke-linecap="round" stroke-miterlimit="10" x1="79.3" y1="87.6" x2="79.3" y2="96.5"/>
	</g>
	<path fill="#A1DBE5" d="M54.6,59c0,0,0.2,1.8-2.1,2.3c0,0,1.8,0.3,2.2,1.9c0,0,0.4-1.6,1.9-2C56.6,61.2,54.6,60.8,54.6,59z"/>
	<path fill="#A1DBE5" d="M96.9,73.2c0,0,0.2,1.8-2.1,2.3c0,0,1.8,0.3,2.2,1.9c0,0,0.4-1.6,1.9-2C98.9,75.4,96.9,75,96.9,73.2z"/>
	<path fill="#A1DBE5" d="M56.2,87.2c0,0,0.2,1.8-2.1,2.3c0,0,1.8,0.3,2.2,1.9c0,0,0.4-1.6,1.9-2C58.2,89.5,56.2,89,56.2,87.2z"/>
</g>
</svg>
