<?xml version="1.0" encoding="utf-8"?>
<!-- Generator: Adobe Illustrator 18.1.1, SVG Export Plug-In . SVG Version: 6.00 Build 0)  -->
<!DOCTYPE svg PUBLIC "-//W3C//DTD SVG 1.1//EN" "http://www.w3.org/Graphics/SVG/1.1/DTD/svg11.dtd">
<svg version="1.1" id="Layer_1" xmlns="http://www.w3.org/2000/svg" xmlns:xlink="http://www.w3.org/1999/xlink" x="0px" y="0px"
	 viewBox="0 0 163 168" enable-background="new 0 0 163 168" xml:space="preserve">
<g>
	<g>
		<path fill="#FEF7B4" d="M140.4,10.7c4.9,0,8.8,4.1,8.8,8.8v120c0,4.9-4.1,8.8-8.8,8.8h-120c-4.9,0-8.8-4.1-8.8-8.8v-120
			c0-4.9,4.1-8.8,8.8-8.8H140.4 M140.4,7.5h-120c-6.6,0-12,5.4-12,12v120c0,6.6,5.4,12,12,12h120c6.6,0,12-5.4,12-12v-120
			C152.2,12.9,146.8,7.5,140.4,7.5L140.4,7.5z"/>
	</g>
	<path fill="#123759" d="M140.4,148.3h-120c-4.9,0-8.8-4.1-8.8-8.8v-120c0-4.9,4.1-8.8,8.8-8.8h120c4.9,0,8.8,4.1,8.8,8.8v120
		C149.2,144.4,145.1,148.3,140.4,148.3z"/>
</g>
<line fill="none" stroke="#FEF7B4" stroke-width="1.2794" stroke-miterlimit="10" x1="39.3" y1="123.9" x2="121.3" y2="38.6"/>
<g>
	<path fill="#FEF7B4" d="M80.6,9h-0.4H58.3c0,10.3,10.3,31.5,10.3,31.5h11.6h0.4h11.6c0,0,10.3-21.2,10.3-31.5H80.6z"/>
	<g>
		<path fill="#77B8B7" d="M99,67.7c-0.9-1.1-1.7-3.2-1.9-4.5l-2.6-11.8c0-1.3-0.2-2.6-0.9-2.6c-0.6,0-1.1,0-1.1-0.2
			s-1.1-0.4-2.4-0.2L83,48.6c-1.3,0-3.6,0-4.9,0l-7.3-0.2c-1.3,0-2.6,0-2.4,0.2c0,0-0.4,0.4-1.1,0.4c-0.6,0-0.9,1.1-0.9,2.6l-2.8,12
			c-0.2,1.3-1.1,3.4-1.9,4.5L47,89.4c-0.9,1.1-1.1,3-0.6,4.1l29.6,67.9c0.6,1.3,1.1,1.3,1.1,0c0-1.3,0-3.4,0-4.7l0.4-45.4
			c0-1.3-0.2-2.6-0.4-2.8c-0.2-0.2-1.1-0.6-1.1-0.6s-0.9-0.9-1.7-1.7c0,0-0.9-0.9-1.3-2.8l0,0c0-0.2-0.2-0.6-0.2-0.9v-0.2
			c0-0.2,0-0.6,0-0.9l0,0c0-3.6,2.4-6.6,5.6-7.7c0.6-0.2,1.5-0.4,2.4-0.4s1.9,0.2,2.8,0.4c3,1.1,5.1,4.1,5.1,7.5l0,0
			c0,0.2,0,0.6,0,0.9v0.2c0,0.2,0,0.6-0.2,0.9l0,0c-0.4,1.7-1.3,2.8-1.3,2.8c-0.9,1.1-1.7,1.7-1.7,1.7s-0.2,0.2-0.4,0.4
			c-0.2,0.2-1.1,1.7-1.1,3l-3.4,49.9c0,1.3,0.4,1.5,0.9,0.2l1.5-3.2c0.6-1.3,1.5-3.2,2.1-4.5L114,93c0.6-1.3,0.4-3-0.4-4.1L99,67.7z
			"/>
	</g>
	<g>
		<path fill="#2B8D90" d="M78,93.4c0.6-0.2,1.5-0.4,2.4-0.4s1.9,0.2,2.8,0.4c3,1.1,5.1,4.1,5.1,7.5l0,0c0,0.2,0,0.6,0,0.9v0.2
			c0,0.2,0,0.6-0.2,0.9l0,0c-0.4,1.7-1.3,2.8-1.3,2.8c-0.9,1.1-1.7,1.7-1.7,1.7s-0.2,0.2-0.4,0.4c-0.2,0.2-1.1,1.7-1.1,3l-3.2,50.1
			c0,1.3,0.4,1.5,0.9,0.2l1.5-3.2c0.6-1.3,1.5-3.2,2.1-4.5L114,93c0.6-1.3,0.4-3-0.4-4.1L99,67.7c-0.9-1.1-1.7-3.2-1.9-4.5
			l-2.6-11.8c0-1.3-0.2-2.6-0.9-2.6c-0.6,0-2.1,0-3.4,0c0,0-24.2-0.9-24.2-1.1"/>
	</g>
	<g>
		<path fill="#A1DBE5" d="M59.2,38.4c0-1.3,1.1-2.6,2.6-2.6h37.5c1.3,0,2.6,1.1,2.6,2.6v10.5c0,1.3-1.1,2.6-2.6,2.6H61.8
			c-1.3,0-2.6-1.1-2.6-2.6V38.4z"/>
	</g>
</g>
<g>
	<g>
		<g>
			<path fill="#FEF7B4" d="M30.3,48.2v3.6h-3.6v-3.6H30.3 M30.9,45.4h-5.1c-1.1,0-1.9,0.9-1.9,1.9v5.1c0,1.1,0.9,1.9,1.9,1.9h5.1
				c1.1,0,1.9-0.9,1.9-1.9v-5.1C32.8,46.3,32,45.4,30.9,45.4L30.9,45.4z"/>
		</g>
	</g>
	<line fill="none" stroke="#FEF7B4" stroke-width="1.2794" stroke-miterlimit="10" x1="28.1" y1="54.2" x2="36.5" y2="123.9"/>
	<g>
		<g>
			<path fill="#FEF7B4" d="M38.6,126.2v3.6H35v-3.6H38.6 M39.3,123.4h-5.1c-1.1,0-1.9,0.9-1.9,1.9v5.4c0,1.1,0.9,1.9,1.9,1.9h5.1
				c1.1,0,1.9-0.9,1.9-1.9v-5.1C41.4,124.3,40.3,123.4,39.3,123.4L39.3,123.4z"/>
		</g>
	</g>
	<g>
		<g>
			<path fill="#FEF7B4" d="M125,34.3v3.6h-3.6v-3.6H125 M125.8,31.7h-5.1c-1.1,0-1.9,0.9-1.9,1.9v5.1c0,1.1,0.9,1.9,1.9,1.9h5.1
				c1.1,0,1.9-0.9,1.9-1.9v-5.1C127.8,32.6,126.9,31.7,125.8,31.7L125.8,31.7z"/>
		</g>
	</g>
	<line fill="none" stroke="#FEF7B4" stroke-width="1.2794" stroke-miterlimit="10" x1="123.5" y1="40.3" x2="132.3" y2="102"/>
	<g>
		<g>
			<path fill="#FEF7B4" d="M134.2,103.9v3.6h-3.6v-3.6H134.2 M135,101.4h-5.4c-1.1,0-1.9,0.9-1.9,1.9v5.1c0,1.1,0.9,1.9,1.9,1.9h5.1
				c1.1,0,1.9-0.9,1.9-1.9v-5.1C137,102.2,136.1,101.4,135,101.4L135,101.4z"/>
		</g>
	</g>
</g>
</svg>
