<?xml version="1.0" encoding="utf-8"?>
<!-- Generator: Adobe Illustrator 18.1.1, SVG Export Plug-In . SVG Version: 6.00 Build 0)  -->
<!DOCTYPE svg PUBLIC "-//W3C//DTD SVG 1.1//EN" "http://www.w3.org/Graphics/SVG/1.1/DTD/svg11.dtd">
<svg version="1.1" id="Layer_1" xmlns="http://www.w3.org/2000/svg" xmlns:xlink="http://www.w3.org/1999/xlink" x="0px" y="0px"
	 viewBox="0 0 272.2 273" enable-background="new 0 0 272.2 273" xml:space="preserve">
<g>
	<path fill="#113559" d="M136.5,24.3c29.3,0,56.9,11.4,77.7,32.2c20.7,20.7,32.2,48.3,32.2,77.7c0,29.3-11.4,56.9-32.2,77.7
		c-20.7,20.7-48.3,32.2-77.7,32.2c-29.3,0-56.9-11.4-77.7-32.2c-20.7-20.7-32.2-48.3-32.2-77.7s11.4-56.9,32.2-77.7
		S107.1,24.3,136.5,24.3 M136.5,4.3C64.8,4.3,6.6,62.4,6.6,134.1C6.6,205.8,64.8,264,136.5,264c71.7,0,129.8-58.1,129.8-129.8
		C266.3,62.4,208.2,4.3,136.5,4.3L136.5,4.3z"/>
</g>
<g>
	<path fill="#113559" d="M-160.2,53.5h-64.4c-3.4,0-6.2,2.8-6.2,6.2v106.5c0,3.4,2.8,6.2,6.2,6.2h64.4c3.4,0,6.2-2.8,6.2-6.2V59.6
		C-154.1,56.3-156.8,53.5-160.2,53.5z"/>
	<path fill="#113559" d="M-202.3,43.7h19.7c1.3,0,2.3-1,2.3-2.3c0-1.3-1-2.3-2.3-2.3h-19.7c-1.3,0-2.3,1-2.3,2.3
		C-204.6,42.7-203.5,43.7-202.3,43.7z"/>
	<circle fill="#113559" cx="-192.4" cy="187.5" r="7.6"/>
	<path fill="#113559" d="M-192.4-4.4c-63.4,0-114.8,52.3-114.8,116.7s51.4,116.7,114.8,116.7s114.8-52.3,114.8-116.7
		S-129-4.4-192.4-4.4z M-144.1,190.7c0,4.6-3.8,8.4-8.4,8.4h-80c-4.6,0-8.4-3.8-8.4-8.4V34c0-4.6,3.8-8.4,8.4-8.4h80
		c4.6,0,8.4,3.8,8.4,8.4V190.7z"/>
</g>
<g id="zW0SYE.tif">
	
		<image overflow="visible" width="2400" height="2400" id="Layer_0_1_" xlink:href="89789BA15862E6B9.png"  transform="matrix(0.1301 0 0 0.1301 -243.688 966.4877)">
	</image>
</g>
<g>
	<path fill="#113559" d="M133.9,147.2c2.2,2.2,3.5,2.2,5.7,0c20.7-20.7,41.4-41.4,62.1-62.1c0.3-0.3,0.6-0.7,1-1.1
		c-44,0-87.9,0-132,0c0.4,0.5,0.7,0.8,1.1,1.1C92.5,105.8,113.2,126.5,133.9,147.2z"/>
	<path fill="#113559" d="M112.6,138.8c-16.6-16.6-33.1-33-49.7-49.5c0,0.4,0,0.8,0,1.3c0,28.7,0,57.3,0,86c0,0.4,0,0.8,0,1.3
		c0.2,2.2,0.6,4.2,2.5,5.6c1,0.7,1.8,0.9,2.8-0.2c14.4-14.5,28.9-29,43.3-43.4C112,139.5,112.3,139.1,112.6,138.8z"/>
	<path fill="#113559" d="M152.9,146.6c-4.5,4.5-8.9,8.9-13.4,13.4c-2,2-3.5,2-5.6,0c-4.6-4.6-9.1-9.2-13.7-13.8
		c-0.4-0.4-0.7-0.7-1.1-1c0.1,0.1,0.2,0.3,0.3,0.4C106.2,158.6,93,171.8,80,184.8c37.4,0,75.2,0,112.8,0c-13-12.9-25.9-25.9-39.1-39
		C153.6,146,153.3,146.3,152.9,146.6z"/>
	<path fill="#113559" d="M211,88.9c-16.8,16.8-33.6,33.5-50.6,50.5c0.3,0.2,0.8,0.5,1.1,0.9c14.1,14.1,28.2,28.3,42.3,42.4
		c1.9,1.9,2.9,2,4.8-0.1c0.7-0.8,1.4-1.8,1.7-2.8c0.5-1.8,0.8-3.6,0.8-5.5c0-28.1,0-56.1,0-84.2C211,89.7,211,89.3,211,88.9z"/>
	<path fill="#113559" d="M136.5,17.4C73,17.4,21.6,69.6,21.6,134.1S73,250.9,136.5,250.9s114.8-52.3,114.8-116.7
		S199.9,17.4,136.5,17.4z M202.2,193.8c-43.8,0-87.7,0-131.5-0.1c-7.4,0-12.8-3.6-16-10.3c-0.8-1.6-1.2-3.5-1.7-5.2
		c0-29.4,0-58.8,0-88.3c0.1-0.2,0.2-0.4,0.3-0.6c1.1-6.3,4.7-10.8,10.5-13.5c1.5-0.7,3.2-1,4.8-1.5c45.4,0,90.8,0,136.2,0
		c0.2,0.1,0.3,0.2,0.5,0.2c4.1,0.7,7.6,2.6,10.4,5.7c2.4,2.7,4.4,5.8,4.4,9.5c0.1,28.8,0.1,57.6,0,86.4
		C220,186,211.9,193.8,202.2,193.8z"/>
</g>
<g>
	<path fill="#113559" d="M-192.4,2.5c29.3,0,56.9,11.4,77.7,32.2C-94,55.4-82.6,83-82.6,112.3S-94,169.3-114.7,190
		c-20.7,20.7-48.3,32.2-77.7,32.2s-56.9-11.4-77.7-32.2c-20.7-20.7-32.2-48.3-32.2-77.7s11.4-56.9,32.2-77.7S-221.7,2.5-192.4,2.5
		 M-192.4-17.5c-71.7,0-129.8,58.1-129.8,129.8c0,71.7,58.1,129.8,129.8,129.8S-62.6,184-62.6,112.3
		C-62.6,40.6-120.7-17.5-192.4-17.5L-192.4-17.5z"/>
</g>
</svg>
