<?xml version="1.0" encoding="utf-8"?>
<!-- Generator: Adobe Illustrator 18.1.1, SVG Export Plug-In . SVG Version: 6.00 Build 0)  -->
<!DOCTYPE svg PUBLIC "-//W3C//DTD SVG 1.1//EN" "http://www.w3.org/Graphics/SVG/1.1/DTD/svg11.dtd">
<svg version="1.1" id="Layer_1" xmlns="http://www.w3.org/2000/svg" xmlns:xlink="http://www.w3.org/1999/xlink" x="0px" y="0px"
	 viewBox="0 0 360 360" enable-background="new 0 0 360 360" xml:space="preserve">
<g>
	<path class="facebook" fill="#113559" d="M315.4,25.5H45.6C33.7,25.5,24,35.2,24,47.1v269.8c0,11.9,9.7,21.6,21.6,21.6h269.8
		c11.9,0,21.6-9.7,21.6-21.6V47.1C337,35.2,327.3,25.5,315.4,25.5z M209.8,121.5c-3.1,0-7.7-0.1-11.5,4.2
		c-3.4,3.9-3.2,10.2-3.2,11.5c0,5.2-0.4,20.3,2,20.3c7.1,0,23.4-0.1,29.2,0.4c5.5,0.5,3.9,32.4-4.2,32.5c-6.9,0.1-20.3,0.3-27,0
		c-0.9,0-0.1,72.5-0.1,72.5c0.1,5.5-4.4,10-9.9,10h-13.2c-5.5,0-9.9-4.5-9.8-10c0,0,1.4-72.5-0.2-72.5c-5.7,0.2-21.4,0.5-28.5,0
		c-5-0.4-4-32.5,0-32.5c7.2-0.1,21.4,0.7,28.2,0c1.9-0.2,0.2-19.5,0-26c-0.2-7.9,0.6-20.9,9.5-29.4c12.8-12.2,33.4-9.9,56.3-9.1
		c12.8,0.5,13.4,28.2,0.3,28C222.5,121.4,214.2,121.5,209.8,121.5z"/>
</g>
</svg>
