<?xml version="1.0" encoding="utf-8"?>
<!-- Generator: Adobe Illustrator 18.1.1, SVG Export Plug-In . SVG Version: 6.00 Build 0)  -->
<!DOCTYPE svg PUBLIC "-//W3C//DTD SVG 1.1//EN" "http://www.w3.org/Graphics/SVG/1.1/DTD/svg11.dtd">
<svg version="1.1" id="Layer_1" xmlns="http://www.w3.org/2000/svg" xmlns:xlink="http://www.w3.org/1999/xlink" x="0px" y="0px"
	 viewBox="0 0 144 144" enable-background="new 0 0 144 144" xml:space="preserve">
<g>
	<g>
		<path fill="none" stroke="#113559" stroke-width="11" stroke-miterlimit="10" d="M139.4,121.7c0,10-8.3,18.3-18.3,18.3H23.3
			c-10,0-18.3-8.3-18.3-18.3V23.9c0-10,8.3-18.3,18.3-18.3H121c10,0,18.3,8.3,18.3,18.3L139.4,121.7L139.4,121.7z"/>
	</g>
	<path fill="#113559" d="M134.8,10.2H9.6v125.2h125.2V10.2z M91,48.6h-7.1c0,0-3,0-4.6,1.7C78,51.9,78,54.4,78,54.9v8.3h12.5
		l-1.7,13H78v33H64.7v-33H53.3v-13h11.3V52.8c0,0-0.4-6.7,4.6-11.7c5-5,12.1-4.6,21.7-3.7L91,48.6L91,48.6z"/>
</g>
</svg>
