<?xml version="1.0" encoding="utf-8"?>
<!-- Generator: Adobe Illustrator 18.1.1, SVG Export Plug-In . SVG Version: 6.00 Build 0)  -->
<!DOCTYPE svg PUBLIC "-//W3C//DTD SVG 1.1//EN" "http://www.w3.org/Graphics/SVG/1.1/DTD/svg11.dtd">
<svg version="1.1" id="Layer_1" xmlns="http://www.w3.org/2000/svg" xmlns:xlink="http://www.w3.org/1999/xlink" x="0px" y="0px"
	 viewBox="0 0 124.6 46.4" enable-background="new 0 0 124.6 46.4" xml:space="preserve">
<g>
	<g>
		<g>
			<g>
				<path fill="#123758" d="M5.1,4.1c0.5,0,1,0.1,1.5,0.2C7,4.4,7.4,4.6,7.4,4.6C7.6,4.8,8,4.8,8.2,4.8h2.3c0.2,0,0.4,0.1,0.4,0.2
					s0,0.3-0.1,0.3c0,0.1-0.5,0.2-0.7,0.2L9.1,5.7c-0.2,0-0.3,0.2-0.2,0.4c0,0,0.2,0.3,0.3,0.7C9.4,7.2,9.4,7.6,9.4,8
					c0,0.6-0.1,1.1-0.3,1.6c-0.2,0.5-0.5,0.9-0.9,1.2c-0.4,0.3-0.8,0.6-1.4,0.8c-0.5,0.2-1.1,0.3-1.8,0.3c-0.7,0-1.5-0.2-1.5-0.2
					c-0.2-0.1-0.5,0-0.7,0.1c0,0-0.3,0.2-0.5,0.5C2.1,12.6,2,12.8,2,13.1c0,0.4,0.1,0.6,0.4,0.8c0.3,0.2,0.6,0.3,1,0.4
					c0.4,0.1,0.9,0.1,1.4,0.2c0.5,0,1.1,0.1,1.6,0.1c0.5,0,1.1,0.1,1.6,0.2c0.5,0.1,1,0.2,1.4,0.4c0.4,0.2,0.7,0.4,1,0.8
					c0.3,0.3,0.4,0.8,0.4,1.3c0,0.5-0.1,1-0.4,1.5s-0.6,0.9-1.1,1.2c-0.5,0.4-1.1,0.7-1.7,0.9c-0.7,0.2-1.4,0.3-2.3,0.3
					c-0.9,0-1.6-0.1-2.3-0.3s-1.2-0.4-1.6-0.7c-0.4-0.3-0.8-0.6-1-1C0.1,18.7,0,18.3,0,17.8c0-0.6,0.2-1.2,0.6-1.7
					C1.1,15.7,2,15.3,2,15.3c0.2-0.1,0.2-0.3,0-0.3c0,0-0.4-0.2-0.6-0.4C1.1,14.2,1,13.9,1,13.4c0-0.2,0-0.4,0.1-0.5
					s0.2-0.4,0.3-0.6s0.3-0.4,0.5-0.5c0.2-0.2,0.3-0.2,0.3-0.2c0.2-0.1,0.2-0.3,0-0.5c0,0-0.7-0.5-1-1.1C0.9,9.4,0.7,8.8,0.7,8
					c0-0.6,0.1-1.1,0.3-1.6s0.5-0.9,0.9-1.2c0.4-0.3,0.8-0.6,1.4-0.8C3.8,4.2,4.4,4.1,5.1,4.1z M9.7,17.4c0-0.4-0.1-0.7-0.3-0.9
					c-0.2-0.2-0.5-0.4-0.8-0.5c-0.3-0.1-0.7-0.2-1.2-0.3S6.5,15.5,6,15.5c-0.5,0-1-0.1-1.4-0.1c-0.5,0-1-0.1-1-0.1
					c-0.2,0-0.6,0-0.8,0.1c0,0-0.2,0.1-0.5,0.3c-0.3,0.2-0.5,0.3-0.7,0.5c-0.2,0.2-0.3,0.4-0.4,0.7C1.1,17.2,1,17.4,1,17.7
					c0,0.4,0.1,0.7,0.3,1c0.2,0.3,0.5,0.6,0.8,0.8c0.4,0.2,0.8,0.4,1.3,0.5c0.5,0.1,1.1,0.2,1.8,0.2c0.6,0,1.2-0.1,1.7-0.2
					c0.5-0.1,1-0.3,1.4-0.6c0.4-0.3,0.7-0.6,0.9-0.9C9.5,18.2,9.7,17.8,9.7,17.4z M5.1,11.1c0.5,0,1-0.1,1.4-0.2
					c0.4-0.2,0.8-0.4,1-0.6C7.8,10,8,9.7,8.2,9.3C8.3,8.9,8.4,8.5,8.4,8c0-0.5-0.1-0.9-0.2-1.3C8,6.4,7.8,6.1,7.5,5.8
					c-0.3-0.3-0.6-0.5-1-0.6C6.1,5,5.6,5,5.1,5S4.1,5,3.7,5.2c-0.4,0.1-0.8,0.4-1,0.6C2.4,6.1,2.2,6.4,2,6.8C1.9,7.2,1.8,7.6,1.8,8
					c0,0.5,0.1,0.9,0.2,1.3c0.1,0.4,0.4,0.7,0.6,1c0.3,0.3,0.6,0.5,1,0.6C4.1,11.1,4.6,11.1,5.1,11.1z"/>
			</g>
			<g>
				<path fill="#123758" d="M18.3,4.1c0.7,0,1.3,0.1,1.9,0.4c0.6,0.2,1.1,0.6,1.5,1c0.4,0.5,0.8,1,1,1.7c0.3,0.7,0.4,1.4,0.4,2.3
					c0,0.2,0,0.3-0.1,0.4c0,0.1,0,0.1,0,0.1c-0.1,0-0.4,0-0.6,0h-8.1c-0.2,0-0.4,0.1-0.4,0.1c0,0.1,0,0.3,0,0.5c0,0,0.1,1.3,0.3,2
					c0.2,0.7,0.5,1.3,0.9,1.8c0.4,0.5,0.9,0.8,1.4,1.1c0.6,0.2,1.2,0.4,1.9,0.4c0.6,0,1.1-0.1,1.6-0.2c0.5-0.1,0.8-0.3,1.1-0.5
					c0.3-0.2,0.6-0.3,0.7-0.5c0.2-0.1,0.3-0.2,0.4-0.2c0.1,0,0.1,0,0.1,0c0.1,0.1,0.2,0.2,0.3,0.3s0,0.3-0.1,0.5
					c0,0-0.2,0.2-0.5,0.4c-0.3,0.2-0.7,0.4-1.1,0.5c-0.4,0.2-0.8,0.3-1.3,0.4c-0.5,0.1-0.9,0.1-1.4,0.1c-0.8,0-1.6-0.1-2.3-0.4
					c-0.7-0.3-1.3-0.7-1.8-1.3s-0.9-1.2-1.1-2.1c-0.3-0.8-0.4-1.7-0.4-2.8c0-0.9,0.1-1.7,0.4-2.4c0.3-0.7,0.6-1.4,1.1-1.9
					c0.5-0.5,1.1-1,1.7-1.3C16.6,4.3,17.4,4.1,18.3,4.1z M18.3,5c-0.6,0-1.2,0.1-1.7,0.3c-0.5,0.2-0.9,0.5-1.3,0.8
					c-0.4,0.4-0.7,0.8-0.9,1.3C14.2,8,14,8.8,14,8.8c0,0.2,0.1,0.4,0.3,0.4h7.3c0.2,0,0.4-0.2,0.4-0.4c0,0-0.1-0.8-0.2-1.4
					c-0.2-0.5-0.4-1-0.8-1.3c-0.3-0.4-0.7-0.6-1.2-0.8C19.4,5.1,18.8,5,18.3,5z"/>
			</g>
			<g>
				<path fill="#123758" d="M29.6,16.7c-0.8,0-1.5-0.2-1.9-0.7c-0.5-0.5-0.6-1.7-0.6-1.7c0-0.2-0.1-0.6-0.1-0.8V6
					c0-0.2-0.2-0.4-0.4-0.4h-0.9c-0.2,0-0.5,0-0.6,0c0,0,0,0-0.1,0c-0.1,0-0.1,0-0.1,0c0-0.1,0-0.3,0-0.4s0.2-0.2,0.4-0.3l1.3-0.1
					c0.2,0,0.4-0.2,0.4-0.4l0.2-3.6c0-0.2,0-0.5,0.1-0.5c0,0,0,0,0-0.1c0-0.1,0-0.1,0-0.1c0.1,0,0.3,0,0.4,0s0.3,0.2,0.3,0.4v3.9
					c0,0.2,0.2,0.4,0.4,0.4h3c0.2,0,0.4,0.2,0.4,0.4v0.1c0,0.2-0.2,0.4-0.4,0.4h-3c-0.2,0-0.4,0.2-0.4,0.4v7.5c0,0.2,0,0.6,0,0.8
					c0,0,0,0.2,0.1,0.5c0.1,0.2,0.2,0.4,0.4,0.6c0.2,0.2,0.3,0.3,0.5,0.3c0.2,0.1,0.4,0.1,0.7,0.1c0.3,0,0.5,0,0.8-0.1
					s0.4-0.2,0.6-0.3c0.2-0.1,0.3-0.2,0.4-0.3s0.2-0.1,0.2-0.1c0.1,0,0.1,0,0.1,0c0.1,0.1,0.2,0.2,0.3,0.4c0.1,0.1,0,0.4-0.1,0.5
					c0,0-0.4,0.4-0.9,0.6C30.6,16.6,30.1,16.7,29.6,16.7z"/>
			</g>
		</g>
	</g>
	<ellipse fill="#2C8C8F" cx="65.3" cy="33" rx="13.1" ry="13.4"/>
	<path fill="#FEF7B5" d="M74.4,33.4c0,5.1-4.1,9.3-9.1,9.3s-9.1-4.2-9.1-9.3"/>
	<g>
		<g>
			<path fill="#2C8C8F" d="M14.5,45c-0.7,0-1.3-0.6-1.3-1.3V20.6c0-0.7,0.6-1.3,1.3-1.3h3c0.9,0,1.4,0.4,1.7,1.2l0.4,1.7
				c0.4-0.5,0.9-0.9,1.4-1.3c0.5-0.4,1-0.7,1.5-1s1.1-0.5,1.8-0.7c0.6-0.2,1.3-0.2,2.1-0.2c1.6,0,2.9,0.4,3.9,1.3
				c1,0.8,1.8,2.2,1.8,2.2c0.3,0.6,0.9,0.6,1.2,0c0,0,0.3-0.4,0.9-1c0.6-0.6,1.3-1.1,2-1.4c0.7-0.4,1.5-0.6,2.3-0.8
				c0.8-0.2,1.6-0.3,2.4-0.3c1.4,0,2.7,0.2,3.8,0.6s2.1,1.1,2.8,1.9c0.8,0.8,1.3,1.9,1.7,3.1s0.6,2.6,0.6,4.1v15.1
				c0,0.7-0.6,1.3-1.3,1.3h-4.4c-0.7,0-1.3-0.6-1.3-1.3c0,0,0-15,0-15.1c0-2.2-1.5-4.2-3.7-4.4c-2.6-0.2-4.3,2-4.3,4.4v15.1
				c0,0.7-0.6,1.3-1.3,1.3h-4.4c-0.7,0-1.3-0.6-1.3-1.3V28.7c0-1.6-0.3-2.8-1-3.5c-0.6-0.7-1.8-1.4-3.5-1.3
				c-1.7,0.1-3.5,1.5-3.6,2.9c0,4.9,0,16.9,0,16.9c0,0.7-0.6,1.3-1.3,1.3H14.5z"/>
		</g>
	</g>
	<g>
		<g>
			<path fill="#2C8C8F" d="M82.7,45.2c-0.7,0-1.3-0.6-1.3-1.3V20.8c0-0.7,0.6-1.3,1.3-1.3c0,0,3.3,0,3.3,0c1.2,0,2,0.4,2.3,1.7
				l0.4,2.6c0.9-1.5,2-2.6,3.2-3.5c1.2-0.8,2.6-1.3,4.2-1.3c0.6,0,1.2,0.1,1.8,0.2c0.4,0.1,1.3,0.3,1.4,0.7c0,0.1,0,1.2,0,1.6
				c-0.1,0.6-0.2,1.3-0.2,1.9c-0.1,0.8-0.2,1.9-0.7,2.2c-0.2,0.1-0.5,0.2-0.8,0.2c-0.3,0-0.7,0-1.3-0.1c-0.6-0.1-1.1-0.1-1.6-0.1
				c-1.4,0-2.6,0.3-3.4,1c-0.5,0.4-1.1,0.8-1.4,1.3c-0.3,0.5-0.6,1.1-0.7,1.7c0,0.3-0.1,0.6-0.1,0.8c0,0.6,0,1.2,0,1.8
				c0,1.8,0.1,3.6,0.1,5.3c0,1.7,0,3.5,0,5.2c0,0.8,0,1.1,0,1.1c0,0.7-0.6,1.3-1.3,1.3H82.7z"/>
		</g>
	</g>
	<g>
		<g>
			<g>
				<path fill="#2C8C8F" d="M103.6,44.9c-0.7,0.2-1.2-0.3-1.2-1V10.2c0-0.7,0.6-1.3,1.3-1.3h4.2c0.7,0,1.3,0.6,1.3,1.3v12.4
					c0.9-0.9,2-1.6,3.1-2.1c1.1-0.5,2.4-0.8,4-0.8c1.4,0,2.6,0.2,3.6,0.7c1.1,0.5,1.9,1.1,2.7,2c0.7,0.8,1.3,1.8,1.6,3
					c0.4,1.2,0.5,2.4,0.5,3.8v14.6c0,0.7-0.6,1.3-1.3,1.3h-4.1c-0.7,0-1.3-0.6-1.3-1.3V29.3c0-1.6-0.1-2.2-0.7-3
					c-1.3-1.5-4.1-1.8-5.9-1c-1.3,0.6-2.2,2-2.2,3.9c0,1.4,0,2.8,0,4.2c0,3.1,0,6.2,0,9.4C109,43.6,103.6,44.9,103.6,44.9z"/>
			</g>
		</g>
		<g>
			<g>
				<path fill="#2C8C8F" d="M109,29.3v14.6c0,0.7-0.6,1.3-1.3,1.3h-4.1c-0.7,0-1.3-0.6-1.3-1.3V29.3C102.3,27.7,109,27.9,109,29.3z"
					/>
			</g>
		</g>
	</g>
</g>
</svg>
