<?xml version="1.0" encoding="utf-8"?>
<!-- Generator: Adobe Illustrator 18.1.1, SVG Export Plug-In . SVG Version: 6.00 Build 0)  -->
<!DOCTYPE svg PUBLIC "-//W3C//DTD SVG 1.1//EN" "http://www.w3.org/Graphics/SVG/1.1/DTD/svg11.dtd">
<svg version="1.1" id="Layer_1" xmlns="http://www.w3.org/2000/svg" xmlns:xlink="http://www.w3.org/1999/xlink" x="0px" y="0px"
	 viewBox="55.4 56.9 34.6 34.6" enable-background="new 55.4 56.9 34.6 34.6" xml:space="preserve">
<g>
	<path fill="none" stroke="#113559" stroke-width="2.4288" stroke-miterlimit="10" d="M88.8,85.9c0,2.4-2,4.4-4.4,4.4H61
		c-2.4,0-4.4-2-4.4-4.4V62.5c0-2.4,2-4.4,4.4-4.4h23.4c2.4,0,4.4,2,4.4,4.4V85.9z"/>
</g>
<g>
	<path fill="#FFFFFF" d="M223.9-1084.9h-32v32h32V-1084.9z M204.1-1061.9h-2.9v-9.3h2.9V-1061.9z M202.6-1072.5
		c-0.9,0-1.7-0.7-1.7-1.7c0-0.9,0.8-1.7,1.7-1.7s1.7,0.8,1.7,1.7C204.3-1073.2,203.5-1072.5,202.6-1072.5z M214.9-1067v5H212v-4.8
		c0-0.5,0.1-2.2-1.6-2.2c-1.7,0-1.6,2.2-1.6,2.2v4.8h-2.9v-9.3h2.8v1.3c0.7-1.2,2.2-1.9,4.3-1.3C215.1-1070.6,214.9-1067,214.9-1067
		z"/>
</g>
<g>
	<g>
		<g>
			<path fill="#113559" d="M72.7,77.3c1.7,0,3.1-1.4,3.1-3.1c0-0.5-0.1-1-0.4-1.4c-0.1-0.1-0.1-0.2-0.2-0.4l0,0
				c-0.1-0.1-0.1-0.2-0.2-0.2l0,0c0-0.2,0-0.3-0.1-0.3l0,0c0,0,0,0-0.1-0.1l0,0l-0.1-0.1l0,0c0,0,0,0-0.1,0l0,0c0,0-0.1,0-0.1-0.1
				c0,0,0,0-0.1,0c0,0,0,0-0.1,0c0,0,0,0-0.1,0c0,0,0,0-0.1,0c0,0-0.1,0-0.1-0.1l0,0h-0.1c0,0,0,0-0.1,0h-0.1l0,0h-0.1l0,0h-0.1l0,0
				h-0.1l0,0h-0.1l0,0h-0.1l0,0h-0.1l0,0H73h-0.1l0,0h-0.1l0,0h-0.1l0,0h-0.1l0,0h-0.1l0,0h-0.1l0,0h-0.1l0,0h-0.1l0,0h-0.1l0,0
				c0,0-0.1,0-0.1,0.1c0,0,0,0-0.1,0c0,0,0,0-0.1,0c0,0,0,0-0.1,0c0,0,0,0-0.1,0c0,0-0.1,0-0.1,0.1l0,0c0,0,0,0-0.1,0l0,0l-0.1,0.1
				l0,0c0,0,0,0-0.1,0.1l0,0C71.1,72,71.1,72,71,72.1l0,0c-0.1,0.1-0.1,0.2-0.2,0.2l0,0c-0.1,0.1-0.2,0.2-0.2,0.4
				c-0.2,0.4-0.4,0.9-0.4,1.4C69.6,75.9,71,77.3,72.7,77.3z"/>
		</g>
		<g>
			<path fill="#113559" d="M77.9,68.2h-1.2c-0.4,0-0.8,0.3-0.8,0.8v1.2c0,0.4,0.3,0.8,0.8,0.8h1.2c0.4,0,0.8-0.3,0.8-0.8V69
				C78.6,68.6,78.3,68.2,77.9,68.2z"/>
		</g>
		<g>
			<g>
				<path fill="#113559" d="M87.9,59H57.6v30.3h30.3C87.9,89.3,87.9,59,87.9,59z M80.4,80.2c0,0.9-0.7,1.6-1.6,1.6h-12
					c-0.9,0-1.6-0.7-1.6-1.6v-12c0-0.9,0.7-1.6,1.6-1.6h12c0.9,0,1.6,0.7,1.6,1.6V80.2z"/>
			</g>
		</g>
		<g>
			<path fill="#113559" d="M77.5,74.1c0,2.6-2.1,4.8-4.8,4.8c-2.6,0-4.8-2.1-4.8-4.8c0-0.5,0.1-1,0.2-1.4h-1.3v6.4c0,0.5,0.4,1,1,1
				h9.8c0.5,0,1-0.4,1-1v-6.4h-1.3C77.4,73.2,77.5,73.6,77.5,74.1z"/>
		</g>
	</g>
</g>
</svg>
