<?xml version="1.0" encoding="utf-8"?>
<!-- Generator: Adobe Illustrator 18.1.1, SVG Export Plug-In . SVG Version: 6.00 Build 0)  -->
<!DOCTYPE svg PUBLIC "-//W3C//DTD SVG 1.1//EN" "http://www.w3.org/Graphics/SVG/1.1/DTD/svg11.dtd">
<svg version="1.1" id="Layer_1" xmlns="http://www.w3.org/2000/svg" xmlns:xlink="http://www.w3.org/1999/xlink" x="0px" y="0px"
	 viewBox="0 0 360 360" enable-background="new 0 0 360 360" xml:space="preserve">
<g>
	<path fill="#FFFFFF" d="M1808.6-11823.1h-332.9v332.9h332.9V-11823.1z M1602.6-11583.8h-30.2v-96.8h30.2V-11583.8z M1587-11694.1
		c-9.4,0-17.7-7.3-17.7-17.7c0-9.4,8.3-17.7,17.7-17.7s17.7,8.3,17.7,17.7C1604.6-11701.4,1596.3-11694.1,1587-11694.1z
		 M1714.9-11636.9v52h-30.2v-49.9c0-5.2,1-22.9-16.6-22.9c-17.7,0-16.6,22.9-16.6,22.9v49.9h-30.2v-96.8h29.1v13.5
		c7.3-12.5,22.9-19.8,44.7-13.5C1717-11674.3,1714.9-11636.9,1714.9-11636.9z"/>
</g>
<g>
</g>
<g>
	<path class="instagram" fill="#113559" d="M221.1,148.1h12.5c4.2,0,8.3-3.1,8.3-8.3v-12.5c-1-4.2-4.2-8.3-8.3-8.3h-12.5c-4.2,0-8.3,3.1-8.3,8.3v12.5
		C212.8,144,215.9,148.1,221.1,148.1z"/>
	<g>
		<path class="instagram" fill="#113559" d="M22.4,44.9v272.1c0,11.9,9.7,21.6,21.6,21.6H316c11.9,0,21.6-9.7,21.6-21.6c0-57.6,0-214.5,0-272.1
			c0-11.9-9.7-21.6-21.6-21.6H44C32,23.3,22.4,32.9,22.4,44.9z M118.1,102.3c31.2,0,93.6,0,124.9,0c9.4,0,16.6,7.3,16.6,16.6
			c0,13.1,0.1,38.2,0,51.3c0,0.7-46.2,1-46.6,0c-4.7-12.9-17.3-23.1-32.3-23.1s-27.9,9.1-32.3,23.1c-0.1,0.4-47.1,0.5-47.1,0
			c0.1-11.8,0.2-38.1,0.2-51.3C101.5,109.6,108.7,102.3,118.1,102.3z M242.9,260.5c-31.2-0.1-93.6-0.3-124.9,0
			c-16.5,0.2-17.7-3.5-17.5-16.9c0.2-13.5,0.4-35.1,0.5-50.9c0-0.7,47-1.2,47.3,0c3.5,11.9,17.3,22.8,32.2,22.8s27.9-12.3,32.2-22.8
			c0.6-1.4,46.7-0.5,46.7,0c0.3,19.4,0,38.1,0,51.2C259.6,253.2,252.3,260.5,242.9,260.5z"/>
	</g>
</g>
</svg>
