<?xml version="1.0" encoding="utf-8"?>
<!-- Generator: Adobe Illustrator 18.1.1, SVG Export Plug-In . SVG Version: 6.00 Build 0)  -->
<!DOCTYPE svg PUBLIC "-//W3C//DTD SVG 1.1//EN" "http://www.w3.org/Graphics/SVG/1.1/DTD/svg11.dtd">
<svg version="1.1" id="Layer_1" xmlns="http://www.w3.org/2000/svg" xmlns:xlink="http://www.w3.org/1999/xlink" x="0px" y="0px"
	 viewBox="55 55.1 34.6 34.6" enable-background="new 55 55.1 34.6 34.6" xml:space="preserve">
<g>
	<path fill="#113559" d="M87.5,57.2H57.1v30.4h30.4V57.2z M68.7,79H66v-8.8h2.7V79z M67.3,69c-0.9,0-1.6-0.7-1.6-1.6
		s0.7-1.6,1.6-1.6s1.6,0.7,1.6,1.6S68.2,69,67.3,69z M78.9,74.3V79h-2.8v-4.5c0-0.5,0.1-2.1-1.5-2.1s-1.5,2.1-1.5,2.1V79h-2.7v-8.8
		H73v1.2c0.7-1.2,2-1.8,4.1-1.2C79.1,70.8,78.9,74.3,78.9,74.3z"/>
</g>
<g>
	<path fill="none" stroke="#113559" stroke-width="2.4288" stroke-miterlimit="10" d="M88.4,84.1c0,2.4-2,4.4-4.4,4.4H60.6
		c-2.4,0-4.4-2-4.4-4.4V60.7c0-2.4,2-4.4,4.4-4.4H84c2.4,0,4.4,2,4.4,4.4V84.1z"/>
</g>
<g>
	<path fill="#FFFFFF" d="M223.9-1084.9h-32v32h32V-1084.9z M204.1-1061.9h-2.9v-9.3h2.9V-1061.9z M202.6-1072.5
		c-0.9,0-1.7-0.7-1.7-1.7c0-0.9,0.8-1.7,1.7-1.7s1.7,0.8,1.7,1.7C204.3-1073.2,203.5-1072.5,202.6-1072.5z M214.9-1067v5H212v-4.8
		c0-0.5,0.1-2.2-1.6-2.2c-1.7,0-1.6,2.2-1.6,2.2v4.8h-2.9v-9.3h2.8v1.3c0.7-1.2,2.2-1.9,4.3-1.3C215.1-1070.6,214.9-1067,214.9-1067
		z"/>
</g>
</svg>
