<?xml version="1.0" encoding="utf-8"?>
<!-- Generator: Adobe Illustrator 18.1.1, SVG Export Plug-In . SVG Version: 6.00 Build 0)  -->
<!DOCTYPE svg PUBLIC "-//W3C//DTD SVG 1.1//EN" "http://www.w3.org/Graphics/SVG/1.1/DTD/svg11.dtd">
<svg version="1.1" id="Layer_1" xmlns="http://www.w3.org/2000/svg" xmlns:xlink="http://www.w3.org/1999/xlink" x="0px" y="0px"
	 viewBox="0 0 360 360" enable-background="new 0 0 360 360" xml:space="preserve">
<g>
	<g>
		<g>
			<path class="linked-in" fill="#113559" d="M316.6,21.8H43.4c-11.9,0-21.6,9.7-21.6,21.6v273.1c0,11.9,9.7,21.6,21.6,21.6h273.1
				c11.9,0,21.6-9.7,21.6-21.6V43.4C338.2,31.5,328.5,21.8,316.6,21.8z M142.5,238.7c0,5.5-4.5,10-10,10h-8.1c-5.5,0-10-4.5-10-10
				v-71.5c0-5.5,4.5-10,10-10h8.1c5.5,0,10,4.5,10,10V238.7z M128,144.6c-9.4,0-16.6-7.3-16.6-16.6s7.3-16.6,16.6-16.6
				s16.6,7.3,16.6,16.6S137.3,144.6,128,144.6z M248.7,199.8c-0.3,12.2-0.1,38.9-0.1,38.9c0.1,5.5-4.4,10-9.9,10h-9.1
				c-5.5,0-10-4.5-10-10c0,0,0-25.1,0-36.8c0-5.2,1-21.8-15.6-21.8s-15.8,15.1-15.6,21.8c0.3,11.7,0.1,36.8,0.1,36.8
				c0,5.5-4.6,10-10.1,10h-8.1c-5.5,0-10-4.5-10-10c0,0-0.1-65.2,0-81.6c0.1-6.8,26.8-7,27.1,0c0.1,3.1-1.5,15.2,0,12.5
				c8.1-14.5,20.9-18.9,42.7-12.5C250.8,163.2,249,188.1,248.7,199.8z"/>
		</g>
	</g>
</g>
<g>
	<path class="linked-in" fill="#FFFFFF" d="M1812.3-11806.2h-332.9v332.9h332.9V-11806.2z M1606.3-11566.9h-30.2v-96.8h30.2V-11566.9z M1590.7-11677.2
		c-9.4,0-17.7-7.3-17.7-17.7c0-9.4,8.3-17.7,17.7-17.7c9.4,0,17.7,8.3,17.7,17.7C1608.4-11684.4,1600.1-11677.2,1590.7-11677.2z
		 M1718.7-11619.9v52h-30.2v-49.9c0-5.2,1-22.9-16.6-22.9c-17.7,0-16.6,22.9-16.6,22.9v49.9h-30.2v-96.8h29.1v13.5
		c7.3-12.5,22.9-19.8,44.7-13.5C1720.8-11657.4,1718.7-11619.9,1718.7-11619.9z"/>
</g>
</svg>
