<?xml version="1.0" encoding="utf-8"?>
<!-- Generator: Adobe Illustrator 18.1.1, SVG Export Plug-In . SVG Version: 6.00 Build 0)  -->
<!DOCTYPE svg PUBLIC "-//W3C//DTD SVG 1.1//EN" "http://www.w3.org/Graphics/SVG/1.1/DTD/svg11.dtd">
<svg version="1.1" id="Layer_1" xmlns="http://www.w3.org/2000/svg" xmlns:xlink="http://www.w3.org/1999/xlink" x="0px" y="0px"
	 viewBox="0 0 272.2 273" enable-background="new 0 0 272.2 273" xml:space="preserve">
<g>
	<path fill="#113559" d="M462.2-18.9c29.3,0,56.9,11.4,77.7,32.2c20.7,20.7,32.2,48.3,32.2,77.7c0,29.3-11.4,56.9-32.2,77.7
		c-20.7,20.7-48.3,32.2-77.7,32.2c-29.3,0-56.9-11.4-77.7-32.2c-20.7-20.7-32.2-48.3-32.2-77.7s11.4-56.9,32.2-77.7
		S432.9-18.9,462.2-18.9 M462.2-38.9c-71.7,0-129.8,58.1-129.8,129.8c0,71.7,58.1,129.8,129.8,129.8S592.1,162.7,592.1,91
		C592.1,19.3,533.9-38.9,462.2-38.9L462.2-38.9z"/>
</g>
<g>
	<path fill="#113559" d="M169.2,77.5h-64.4c-3.4,0-6.2,2.8-6.2,6.2v106.5c0,3.4,2.8,6.2,6.2,6.2h64.4c3.4,0,6.2-2.8,6.2-6.2V83.7
		C175.4,80.3,172.6,77.5,169.2,77.5z"/>
	<path fill="#113559" d="M127.1,67.8h19.7c1.3,0,2.3-1,2.3-2.3c0-1.3-1-2.3-2.3-2.3h-19.7c-1.3,0-2.3,1-2.3,2.3
		C124.8,66.8,125.9,67.8,127.1,67.8z"/>
	<circle fill="#113559" cx="137" cy="211.5" r="7.6"/>
	<path fill="#113559" d="M137,19.7c-63.4,0-114.8,52.3-114.8,116.7S73.6,253.1,137,253.1s114.8-52.3,114.8-116.7
		S200.4,19.7,137,19.7z M185.4,214.8c0,4.6-3.8,8.4-8.4,8.4H97c-4.6,0-8.4-3.8-8.4-8.4V58c0-4.6,3.8-8.4,8.4-8.4h80
		c4.6,0,8.4,3.8,8.4,8.4V214.8z"/>
</g>
<g id="zW0SYE.tif">
	
		<image overflow="visible" width="2400" height="2400" id="Layer_0_1_" xlink:href="6CBD58ED87B5511B.png"  transform="matrix(0.1301 0 0 0.1301 -243.688 966.4877)">
	</image>
</g>
<g>
	<path fill="#113559" d="M459.7,104c2.2,2.2,3.5,2.2,5.7,0c20.7-20.7,41.4-41.4,62.1-62.1c0.3-0.3,0.6-0.7,1-1.1c-44,0-87.9,0-132,0
		c0.4,0.5,0.7,0.8,1.1,1.1C418.3,62.6,439,83.3,459.7,104z"/>
	<path fill="#113559" d="M438.4,95.6c-16.6-16.6-33.1-33-49.7-49.5c0,0.4,0,0.8,0,1.3c0,28.7,0,57.3,0,86c0,0.4,0,0.8,0,1.3
		c0.2,2.2,0.6,4.2,2.5,5.6c1,0.7,1.8,0.9,2.8-0.2c14.4-14.5,28.9-29,43.3-43.4C437.8,96.3,438.1,95.9,438.4,95.6z"/>
	<path fill="#113559" d="M478.7,103.5c-4.5,4.5-8.9,8.9-13.4,13.4c-2,2-3.5,2-5.6,0c-4.6-4.6-9.1-9.2-13.7-13.8
		c-0.4-0.4-0.7-0.7-1.1-1c0.1,0.1,0.2,0.3,0.3,0.4c-13.2,13.2-26.4,26.3-39.4,39.4c37.4,0,75.2,0,112.8,0
		c-13-12.9-25.9-25.9-39.1-39C479.4,102.8,479,103.1,478.7,103.5z"/>
	<path fill="#113559" d="M536.8,45.8c-16.8,16.8-33.6,33.5-50.6,50.5c0.3,0.2,0.8,0.5,1.1,0.9c14.1,14.1,28.2,28.3,42.3,42.4
		c1.9,1.9,2.9,2,4.8-0.1c0.7-0.8,1.4-1.8,1.7-2.8c0.5-1.8,0.8-3.6,0.8-5.5c0-28.1,0-56.1,0-84.2C536.8,46.6,536.8,46.1,536.8,45.8z"
		/>
	<path fill="#113559" d="M462.2-25.8c-63.4,0-114.8,52.3-114.8,116.7s51.4,116.7,114.8,116.7S577.1,155.4,577.1,91
		S525.6-25.8,462.2-25.8z M528,150.7c-43.8,0-87.7,0-131.5-0.1c-7.4,0-12.8-3.6-16-10.3c-0.8-1.6-1.2-3.5-1.7-5.2
		c0-29.4,0-58.8,0-88.3c0.1-0.2,0.2-0.4,0.3-0.6c1.1-6.3,4.7-10.8,10.5-13.5c1.5-0.7,3.2-1,4.8-1.5c45.4,0,90.8,0,136.2,0
		c0.2,0.1,0.3,0.2,0.5,0.2c4.1,0.7,7.6,2.6,10.4,5.7c2.4,2.7,4.4,5.8,4.4,9.5c0.1,28.8,0.1,57.6,0,86.4
		C545.7,142.8,537.7,150.7,528,150.7z"/>
</g>
<g>
	<path fill="#113559" d="M137,26.6c29.3,0,56.9,11.4,77.7,32.2c20.7,20.7,32.2,48.3,32.2,77.7s-11.4,56.9-32.2,77.7
		c-20.7,20.7-48.3,32.2-77.7,32.2s-56.9-11.4-77.7-32.2c-20.7-20.7-32.2-48.3-32.2-77.7s11.4-56.9,32.2-77.7S107.7,26.6,137,26.6
		 M137,6.6C65.3,6.6,7.2,64.7,7.2,136.4c0,71.7,58.1,129.8,129.8,129.8s129.8-58.1,129.8-129.8C266.8,64.7,208.7,6.6,137,6.6
		L137,6.6z"/>
</g>
</svg>
