<?xml version="1.0" encoding="utf-8"?>
<!-- Generator: Adobe Illustrator 18.1.1, SVG Export Plug-In . SVG Version: 6.00 Build 0)  -->
<!DOCTYPE svg PUBLIC "-//W3C//DTD SVG 1.1//EN" "http://www.w3.org/Graphics/SVG/1.1/DTD/svg11.dtd">
<svg version="1.1" id="Layer_1" xmlns="http://www.w3.org/2000/svg" xmlns:xlink="http://www.w3.org/1999/xlink" x="0px" y="0px"
	 viewBox="0 0 360 360" enable-background="new 0 0 360 360" xml:space="preserve">
<g>
	<g>
		<g>
			<path fill="#C0E7F3" d="M202.4,74.3c6.1,0,11.1,5,11.1,11.1v61c0,6.1,5,11.1,11.1,11.1h56.1c6.1,0,11.1,5,11.1,11.1v19.2
				c0,6.1-5,11.1-11.1,11.1h-56.1c-6.1,0-11.1,5-11.1,11.1v61.2c0,6.1-5,11.1-11.1,11.1h-23.9c-6.1,0-11.1-5-11.1-11.1v-61.2
				c0-6.1-5-11.1-11.1-11.1h-55.7c-6.1,0-11.1-5-11.1-11.1v-19.2c0-6.1,5-11.1,11.1-11.1h55.7c6.1,0,11.1-5,11.1-11.1v-61
				c0-6.1,5-11.1,11.1-11.1H202.4z"/>
		</g>
	</g>
</g>
</svg>
