<?xml version="1.0" encoding="utf-8"?>
<!-- Generator: Adobe Illustrator 18.1.1, SVG Export Plug-In . SVG Version: 6.00 Build 0)  -->
<!DOCTYPE svg PUBLIC "-//W3C//DTD SVG 1.1//EN" "http://www.w3.org/Graphics/SVG/1.1/DTD/svg11.dtd">
<svg version="1.1" id="Layer_1" xmlns="http://www.w3.org/2000/svg" xmlns:xlink="http://www.w3.org/1999/xlink" x="0px" y="0px"
	 viewBox="0 0 360 360" enable-background="new 0 0 360 360" xml:space="preserve">
<g>
	<g>
		<g>
			<path fill="#FEE544" d="M183.6,205.8c-1.5-6.3-1-12.9-2.1-19.3c-2.3-14.4-12.7-28.4-24.7-35.9c-10.2-6.3-22-9-24.6-7.6
				c1.8-0.2,3.5-0.1,5.4,0.4c12,3.4,17.4,24.6,11,53c-6.4,28.3-25.7,52.9-37.9,50.3c5.3,2.6,14.8,4.7,22.9,3.4
				c7.1-1.1,13.4-4,20.1-6.7c6.6-2.7,12.3-7.5,18.9-9.8c4.7-1.7,12.3-1.8,15.3-6.8C192,220.2,185.2,212.4,183.6,205.8z"/>
			<g>
				<path fill="#FCCB42" d="M130.2,148.1c-0.4,1.4-10.2,48.3-10.2,48.3s18.2-28.8,22.8-38C142.9,154.7,134.7,147.6,130.2,148.1z"/>
				<path fill="#FCCB42" d="M144.6,165L120,196.3l25.8-14.2C146.5,179,145.6,166.5,144.6,165z"/>
				<path fill="#FCCB42" d="M145.4,187c1.8,4.3-2.9,15.8-4.8,19l-20.7-9.8C120,196.4,139.7,188.4,145.4,187z"/>
				<path fill="#FCCB42" d="M138.7,210.5L120,196.3c0,0,5.2,23.3,7.4,32.8C131.8,227,138.6,215.3,138.7,210.5z"/>
				<path fill="#FCCB42" d="M123.6,233.9c-1.5-14.1-3.6-37.7-3.6-37.7l-11.2,45.2C113.6,241.9,122.8,237.7,123.6,233.9z"/>
				<path fill="#FCCB42" d="M103.4,237.4l16.6-41.1c0,0-13.3,13.2-21,20.7C97.7,220.2,100.8,234.4,103.4,237.4z"/>
				<path fill="#FCCB42" d="M102.3,186.1c-2.8,6.4-3.7,14.5-2.8,20.4c6.4-3.7,20.5-10.2,20.5-10.2L102.3,186.1z"/>
				<path fill="#FCCB42" d="M104.1,179.1l15.9,17.2c0,0-6.2-25.6-8.7-35C109.3,163,105,173.3,104.1,179.1z"/>
				<path fill="#FCCB42" d="M114.4,157.8l5.6,38.5c0,0,6-47.3,5.9-47.3C118.8,149.4,114.9,156.1,114.4,157.8z"/>
			</g>
			<path fill="#FEE544" d="M42.9,190.8c-2.2,3.4-4.4,6.6-7,9.6c-5,5.8-13.2,6.7-8.2,20.1c2.2,5.7,11.9,3.3,17.1,6.5
				c7.4,4.8,13.2,11.7,20.5,16.8c8.4,5.7,15.1,7.4,26.7,9c3.9,0.5,15.3-0.4,24.2-4.3c0,0,3.5-77.5-24.9-103.6
				c-1.2-1.2-11.8,2.9-13.8,3.4c-5,1.8-10.3,4.1-14.7,7.4c-6.2,4.7-11.9,11.5-14.7,18.8C46.2,179.6,45.7,186.2,42.9,190.8z"/>
			<path fill="#FCCB42" d="M105.5,148.8c-0.3-6.5-8.7-13.2-14.2-15.9c-5.7-2.8-14.1-3.8-15.5-11.3c-2.2-11.9,13.1-13.1,20-7.3
				C106.3,123,105,136.8,105.5,148.8z"/>
			<path fill="#FEE544" d="M110.5,148.4c0-1.8,5.5-10,7-11.5c3.9-4.1,9.8-6.4,10.8-12.2c1.4-8-8.3-7.1-13.3-1.9
				C107.7,130.2,110.3,140.9,110.5,148.4z"/>
		</g>
		<rect x="-0.8" y="256.5" fill="none" width="224.5" height="120.4"/>
		<g enable-background="new    ">
			<path fill="#396289" d="M36.9,269.2l-3.8,3.8c-1.5-1.5-2.9-2.3-4.2-2.3c-0.7,0-1.2,0.1-1.6,0.4c-0.4,0.3-0.6,0.7-0.6,1.1
				c0,0.3,0.1,0.6,0.4,0.9c0.2,0.3,0.9,0.7,1.8,1.1l2.2,1.1c2.4,1.2,4,2.3,4.9,3.6s1.3,2.6,1.3,4.2c0,2.2-0.8,4-2.4,5.4
				c-1.6,1.4-3.7,2.2-6.4,2.2c-3.5,0-6.4-1.4-8.5-4.2l3.8-4.1c0.7,0.8,1.6,1.5,2.5,2c1,0.5,1.8,0.8,2.6,0.8c0.8,0,1.5-0.2,1.9-0.6
				s0.7-0.8,0.7-1.3c0-0.9-0.9-1.9-2.7-2.8l-2.1-1c-3.9-2-5.9-4.5-5.9-7.4c0-1.9,0.7-3.6,2.2-4.9c1.5-1.4,3.4-2,5.7-2
				c1.6,0,3.1,0.3,4.5,1C34.7,266.9,35.9,267.9,36.9,269.2z"/>
		</g>
		<g enable-background="new    ">
			<path fill="#396289" d="M53.5,265.2c2.3,0,4.5,0.6,6.5,1.7s3.6,2.7,4.7,4.7c1.1,2,1.7,4.1,1.7,6.4c0,2.3-0.6,4.4-1.7,6.4
				c-1.1,2-2.7,3.6-4.7,4.7c-2,1.1-4.1,1.7-6.5,1.7c-3.5,0-6.5-1.2-8.9-3.7c-2.5-2.5-3.7-5.5-3.7-9c0-3.8,1.4-7,4.2-9.5
				C47.6,266.3,50.4,265.2,53.5,265.2z M53.6,271c-1.9,0-3.5,0.7-4.7,2s-1.9,3-1.9,5.1c0,2.1,0.6,3.8,1.9,5.1c1.2,1.3,2.8,2,4.7,2
				c1.9,0,3.5-0.7,4.8-2c1.3-1.3,1.9-3,1.9-5.1s-0.6-3.8-1.9-5.1S55.6,271,53.6,271z"/>
		</g>
		<g enable-background="new    ">
			<path fill="#396289" d="M69.1,265.8h6.2v11.7c0,2.3,0.2,3.9,0.5,4.8c0.3,0.9,0.8,1.6,1.5,2.1s1.6,0.7,2.6,0.7
				c1,0,1.9-0.2,2.6-0.7c0.7-0.5,1.2-1.2,1.6-2.1c0.3-0.7,0.4-2.2,0.4-4.5v-11.9h6.1v10.3c0,4.2-0.3,7.2-1,8.7
				c-0.8,1.9-2,3.4-3.6,4.4c-1.6,1-3.6,1.5-6.1,1.5c-2.7,0-4.8-0.6-6.5-1.8c-1.6-1.2-2.8-2.9-3.5-5c-0.5-1.5-0.7-4.2-0.7-8.1V265.8z
				"/>
			<path fill="#396289" d="M95.2,265.8h5.2v3.1c0.6-1.2,1.3-2.1,2.3-2.8c0.9-0.6,2-0.9,3.1-0.9c0.8,0,1.6,0.2,2.5,0.6l-1.9,5.3
				c-0.7-0.4-1.3-0.5-1.8-0.5c-0.9,0-1.7,0.6-2.4,1.7c-0.6,1.2-1,3.4-1,6.8l0,1.2v9.8h-6.1V265.8z"/>
		</g>
		<g enable-background="new    ">
			<path fill="#396289" d="M117.4,265.8v2.7c1.1-1.1,2.3-1.9,3.6-2.5c1.3-0.6,2.7-0.8,4.1-0.8c3.2,0,5.9,1.2,8.1,3.6
				c2.2,2.4,3.3,5.5,3.3,9.2c0,3.6-1.1,6.7-3.4,9.1c-2.3,2.4-5,3.7-8.2,3.7c-1.4,0-2.7-0.2-3.9-0.7c-1.2-0.5-2.4-1.3-3.6-2.4v11.5
				h-6.1v-33.2H117.4z M123.8,270.8c-1.9,0-3.5,0.7-4.8,2s-1.9,3-1.9,5.1c0,2.2,0.6,3.9,1.9,5.2c1.3,1.3,2.9,2,4.8,2
				c1.9,0,3.4-0.7,4.7-2s1.9-3.1,1.9-5.2c0-2.1-0.6-3.8-1.9-5.1C127.3,271.5,125.7,270.8,123.8,270.8z"/>
		</g>
		<g enable-background="new    ">
			<path fill="#396289" d="M139.2,265.8h6.2v11.7c0,2.3,0.2,3.9,0.5,4.8c0.3,0.9,0.8,1.6,1.5,2.1s1.6,0.7,2.6,0.7
				c1,0,1.9-0.2,2.6-0.7c0.7-0.5,1.2-1.2,1.6-2.1c0.3-0.7,0.4-2.2,0.4-4.5v-11.9h6.1v10.3c0,4.2-0.3,7.2-1,8.7
				c-0.8,1.9-2,3.4-3.6,4.4c-1.6,1-3.6,1.5-6.1,1.5c-2.7,0-4.8-0.6-6.5-1.8c-1.6-1.2-2.8-2.9-3.5-5c-0.5-1.5-0.7-4.2-0.7-8.1V265.8z
				"/>
			<path fill="#396289" d="M181.6,269.2l-3.8,3.8c-1.5-1.5-2.9-2.3-4.2-2.3c-0.7,0-1.2,0.1-1.6,0.4c-0.4,0.3-0.6,0.7-0.6,1.1
				c0,0.3,0.1,0.6,0.4,0.9c0.2,0.3,0.9,0.7,1.8,1.1l2.2,1.1c2.4,1.2,4,2.3,4.9,3.6c0.9,1.2,1.3,2.6,1.3,4.2c0,2.2-0.8,4-2.4,5.4
				c-1.6,1.4-3.7,2.2-6.4,2.2c-3.5,0-6.4-1.4-8.5-4.2l3.8-4.1c0.7,0.8,1.6,1.5,2.5,2c1,0.5,1.8,0.8,2.6,0.8c0.8,0,1.5-0.2,1.9-0.6
				s0.7-0.8,0.7-1.3c0-0.9-0.9-1.9-2.7-2.8l-2.1-1c-3.9-2-5.9-4.5-5.9-7.4c0-1.9,0.7-3.6,2.2-4.9c1.5-1.4,3.4-2,5.7-2
				c1.6,0,3.1,0.3,4.5,1C179.5,266.9,180.7,267.9,181.6,269.2z"/>
			<path fill="#396289" d="M201.8,269.2L198,273c-1.5-1.5-2.9-2.3-4.2-2.3c-0.7,0-1.2,0.1-1.6,0.4c-0.4,0.3-0.6,0.7-0.6,1.1
				c0,0.3,0.1,0.6,0.4,0.9c0.2,0.3,0.9,0.7,1.8,1.1l2.2,1.1c2.4,1.2,4,2.3,4.9,3.6s1.3,2.6,1.3,4.2c0,2.2-0.8,4-2.4,5.4
				s-3.7,2.2-6.4,2.2c-3.5,0-6.4-1.4-8.5-4.2l3.8-4.1c0.7,0.8,1.6,1.5,2.5,2c1,0.5,1.8,0.8,2.6,0.8c0.8,0,1.5-0.2,1.9-0.6
				s0.7-0.8,0.7-1.3c0-0.9-0.9-1.9-2.7-2.8l-2.1-1c-3.9-2-5.9-4.5-5.9-7.4c0-1.9,0.7-3.6,2.2-4.9s3.4-2,5.7-2c1.6,0,3.1,0.3,4.5,1
				S200.8,267.9,201.8,269.2z"/>
		</g>
		<g enable-background="new    ">
			<path fill="#396289" d="M64.4,316.2l-3.8,3.8c-1.5-1.5-2.9-2.3-4.2-2.3c-0.7,0-1.2,0.1-1.6,0.4c-0.4,0.3-0.6,0.7-0.6,1.1
				c0,0.3,0.1,0.6,0.4,0.9c0.2,0.3,0.9,0.7,1.8,1.1l2.2,1.1c2.4,1.2,4,2.3,4.9,3.6s1.3,2.6,1.3,4.2c0,2.2-0.8,4-2.4,5.4
				c-1.6,1.4-3.7,2.2-6.4,2.2c-3.5,0-6.4-1.4-8.5-4.2l3.8-4.1c0.7,0.8,1.6,1.5,2.5,2c1,0.5,1.8,0.8,2.6,0.8c0.8,0,1.5-0.2,1.9-0.6
				s0.7-0.8,0.7-1.3c0-0.9-0.9-1.9-2.7-2.8l-2.1-1c-3.9-2-5.9-4.5-5.9-7.4c0-1.9,0.7-3.6,2.2-4.9c1.5-1.4,3.4-2,5.7-2
				c1.6,0,3.1,0.3,4.5,1C62.2,313.9,63.4,314.9,64.4,316.2z"/>
			<path fill="#396289" d="M70.3,303.8h6.1v9h3.6v5.3h-3.6v19.1h-6.1V318h-3.1v-5.3h3.1V303.8z"/>
		</g>
		<g enable-background="new    ">
			<path fill="#396289" d="M83.3,312.8h6.2v11.7c0,2.3,0.2,3.9,0.5,4.8c0.3,0.9,0.8,1.6,1.5,2.1s1.6,0.7,2.6,0.7
				c1,0,1.9-0.2,2.6-0.7c0.7-0.5,1.2-1.2,1.6-2.1c0.3-0.7,0.4-2.2,0.4-4.5v-11.9h6.1v10.3c0,4.2-0.3,7.2-1,8.7
				c-0.8,1.9-2,3.4-3.6,4.4c-1.6,1-3.6,1.5-6.1,1.5c-2.7,0-4.8-0.6-6.5-1.8c-1.6-1.2-2.8-2.9-3.5-5c-0.5-1.5-0.7-4.2-0.7-8.1V312.8z
				"/>
		</g>
		<g enable-background="new    ">
			<path fill="#396289" d="M127,303.4h6.1v33.7H127v-2.6c-1.2,1.1-2.4,2-3.6,2.4c-1.2,0.5-2.5,0.7-3.9,0.7c-3.1,0-5.9-1.2-8.2-3.7
				c-2.3-2.4-3.4-5.5-3.4-9.1c0-3.8,1.1-6.8,3.3-9.2c2.2-2.4,4.9-3.6,8.1-3.6c1.5,0,2.8,0.3,4.1,0.8s2.5,1.4,3.6,2.5V303.4z
				 M120.6,317.8c-1.9,0-3.5,0.7-4.7,2c-1.2,1.3-1.9,3-1.9,5.1c0,2.1,0.6,3.8,1.9,5.2c1.3,1.4,2.8,2,4.7,2c1.9,0,3.5-0.7,4.8-2
				c1.3-1.3,1.9-3.1,1.9-5.2c0-2.1-0.6-3.8-1.9-5.1C124.1,318.4,122.5,317.8,120.6,317.8z"/>
			<path fill="#396289" d="M141.7,302.7c1.1,0,2,0.4,2.8,1.2c0.8,0.8,1.1,1.7,1.1,2.8c0,1.1-0.4,2-1.1,2.8c-0.8,0.8-1.7,1.2-2.7,1.2
				c-1.1,0-2-0.4-2.8-1.2c-0.8-0.8-1.1-1.7-1.1-2.9c0-1.1,0.4-2,1.1-2.8C139.7,303.1,140.6,302.7,141.7,302.7z M138.6,312.8h6.1
				v24.3h-6.1V312.8z"/>
			<path fill="#396289" d="M161.7,312.1c2.3,0,4.5,0.6,6.5,1.7s3.6,2.7,4.7,4.7c1.1,2,1.7,4.1,1.7,6.4c0,2.3-0.6,4.4-1.7,6.4
				c-1.1,2-2.7,3.6-4.7,4.7c-2,1.1-4.1,1.7-6.5,1.7c-3.5,0-6.5-1.2-8.9-3.7c-2.5-2.5-3.7-5.5-3.7-9c0-3.8,1.4-7,4.2-9.5
				C155.7,313.2,158.5,312.1,161.7,312.1z M161.8,317.9c-1.9,0-3.5,0.7-4.7,2s-1.9,3-1.9,5.1c0,2.1,0.6,3.8,1.9,5.1
				c1.2,1.3,2.8,2,4.7,2c1.9,0,3.5-0.7,4.8-2c1.3-1.3,1.9-3,1.9-5.1s-0.6-3.8-1.9-5.1S163.7,317.9,161.8,317.9z"/>
		</g>
	</g>
	<g>
		<g>
			<path fill="#FEE544" d="M345.7,236.1c-0.3-1.3-0.2-2.7-0.4-3.9c-0.5-3-2.6-5.8-5-7.4c-2.1-1.3-4.4-1.8-5-1.5
				c0.4-0.1,0.8,0,1.2,0.1c2.5,0.7,3.5,5,2.3,10.8c-1.3,5.8-5.3,10.8-7.8,10.3c1.1,0.5,3.1,1,4.7,0.7c1.5-0.2,2.8-0.8,4-1.4
				c1.4-0.5,2.5-1.5,3.8-2c1-0.3,2.5-0.4,3.1-1.4C347.5,239.1,346.1,237.5,345.7,236.1z"/>
			<g>
				<path fill="#FCCB42" d="M334.9,224.2c-0.1,0.3-2.1,10-2.1,10s3.7-5.9,4.7-7.8C337.4,225.6,335.8,224.2,334.9,224.2z"/>
				<path fill="#FCCB42" d="M337.8,227.7l-5,6.4l5.3-3C338.1,230.6,337.9,228,337.8,227.7z"/>
				<path fill="#FCCB42" d="M337.9,232.3c0.4,0.9-0.6,3.3-1,3.8l-4.2-2C332.7,234.1,336.8,232.6,337.9,232.3z"/>
				<path fill="#FCCB42" d="M336.6,237.1l-3.8-2.9c0,0,1.1,4.7,1.5,6.7C335.2,240.4,336.6,238.1,336.6,237.1z"/>
				<path fill="#FCCB42" d="M333.5,241.8c-0.3-2.9-0.8-7.7-0.8-7.7l-2.4,9.3C331.4,243.5,333.3,242.6,333.5,241.8z"/>
				<path fill="#FCCB42" d="M329.4,242.5l3.4-8.4c0,0-2.8,2.8-4.3,4.2C328.2,239.1,328.8,241.9,329.4,242.5z"/>
				<path fill="#FCCB42" d="M329.1,232.1c-0.5,1.3-0.8,3-0.6,4.1c1.3-0.8,4.2-2.2,4.2-2.2L329.1,232.1z"/>
				<path fill="#FCCB42" d="M329.5,230.7l3.3,3.5c0,0-1.3-5.3-1.8-7.2C330.5,227.3,329.7,229.4,329.5,230.7z"/>
				<path fill="#FCCB42" d="M331.6,226.3l1.2,7.9l1.2-9.7C332.5,224.5,331.6,225.9,331.6,226.3z"/>
			</g>
			<path fill="#FEE544" d="M316.9,233c-0.5,0.7-0.9,1.4-1.5,2c-1.1,1.2-2.8,1.4-1.7,4c0.5,1.2,2.5,0.7,3.4,1.4
				c1.5,1,2.8,2.5,4.1,3.4c1.8,1.2,3.1,1.5,5.4,1.8c0.8,0.1,3.1-0.1,4.9-0.9c0,0,0.8-15.9-5-21.2c-0.2-0.2-2.5,0.6-2.8,0.8
				c-1.1,0.4-2.2,0.8-3.1,1.5c-1.3,1-2.5,2.4-3.1,3.8C317.6,230.7,317.5,232.1,316.9,233z"/>
			<path fill="#FCCB42" d="M329.8,224.4c-0.1-1.4-1.8-2.8-2.9-3.3c-1.2-0.5-2.9-0.8-3.2-2.4c-0.5-2.5,2.7-2.7,4-1.5
				C329.9,219.2,329.7,221.9,329.8,224.4z"/>
			<path fill="#FEE544" d="M330.7,224.3c0-0.4,1.2-2.1,1.5-2.4c0.8-0.8,2.1-1.3,2.2-2.5c0.3-1.6-1.7-1.5-2.8-0.4
				C330.2,220.5,330.7,222.8,330.7,224.3z"/>
		</g>
		<rect x="308" y="246.5" fill="none" width="46" height="24.6"/>
		<g enable-background="new    ">
			<path fill="#396289" d="M315.7,249.1l-0.8,0.8c-0.3-0.3-0.6-0.5-0.9-0.5c-0.1,0-0.3,0-0.3,0.1c-0.1,0.1-0.1,0.1-0.1,0.2
				c0,0.1,0,0.1,0.1,0.2s0.2,0.1,0.4,0.2l0.5,0.2c0.5,0.2,0.8,0.5,1,0.7c0.2,0.2,0.3,0.5,0.3,0.9c0,0.4-0.2,0.8-0.5,1.1
				c-0.3,0.3-0.8,0.4-1.3,0.4c-0.7,0-1.3-0.3-1.7-0.9l0.8-0.8c0.1,0.2,0.3,0.3,0.5,0.4c0.2,0.1,0.4,0.2,0.5,0.2c0.2,0,0.3,0,0.4-0.1
				c0.1-0.1,0.2-0.2,0.2-0.3c0-0.2-0.2-0.4-0.5-0.6l-0.4-0.2c-0.8-0.4-1.2-0.9-1.2-1.5c0-0.4,0.2-0.7,0.5-1c0.3-0.3,0.7-0.4,1.2-0.4
				c0.3,0,0.6,0.1,0.9,0.2C315.3,248.6,315.5,248.8,315.7,249.1z"/>
		</g>
		<g enable-background="new    ">
			<path fill="#396289" d="M319.2,248.3c0.5,0,0.9,0.1,1.3,0.4c0.4,0.2,0.7,0.6,1,1s0.3,0.8,0.3,1.3c0,0.5-0.1,0.9-0.4,1.3
				c-0.2,0.4-0.6,0.7-1,1s-0.8,0.3-1.3,0.3c-0.7,0-1.3-0.3-1.8-0.8c-0.5-0.5-0.8-1.1-0.8-1.9c0-0.8,0.3-1.4,0.9-1.9
				C317.9,248.5,318.5,248.3,319.2,248.3z M319.2,249.4c-0.4,0-0.7,0.1-1,0.4s-0.4,0.6-0.4,1c0,0.4,0.1,0.8,0.4,1.1
				c0.3,0.3,0.6,0.4,1,0.4s0.7-0.1,1-0.4c0.3-0.3,0.4-0.6,0.4-1s-0.1-0.8-0.4-1C319.9,249.6,319.6,249.4,319.2,249.4z"/>
		</g>
		<g enable-background="new    ">
			<path fill="#396289" d="M322.3,248.4h1.3v2.4c0,0.5,0,0.8,0.1,1c0.1,0.2,0.2,0.3,0.3,0.4c0.1,0.1,0.3,0.2,0.5,0.2
				c0.2,0,0.4,0,0.5-0.1s0.3-0.2,0.3-0.4c0.1-0.1,0.1-0.5,0.1-0.9v-2.4h1.3v2.1c0,0.9-0.1,1.5-0.2,1.8c-0.2,0.4-0.4,0.7-0.7,0.9
				s-0.7,0.3-1.2,0.3c-0.5,0-1-0.1-1.3-0.4s-0.6-0.6-0.7-1c-0.1-0.3-0.1-0.9-0.1-1.6V248.4z"/>
			<path fill="#396289" d="M327.7,248.4h1.1v0.6c0.1-0.2,0.3-0.4,0.5-0.6c0.2-0.1,0.4-0.2,0.6-0.2c0.2,0,0.3,0,0.5,0.1l-0.4,1.1
				c-0.1-0.1-0.3-0.1-0.4-0.1c-0.2,0-0.4,0.1-0.5,0.4s-0.2,0.7-0.2,1.4l0,0.2v2h-1.2V248.4z"/>
		</g>
		<g enable-background="new    ">
			<path fill="#396289" d="M332.2,248.4v0.5c0.2-0.2,0.5-0.4,0.7-0.5s0.5-0.2,0.8-0.2c0.7,0,1.2,0.2,1.7,0.7s0.7,1.1,0.7,1.9
				c0,0.7-0.2,1.4-0.7,1.9c-0.5,0.5-1,0.7-1.7,0.7c-0.3,0-0.6-0.1-0.8-0.2c-0.2-0.1-0.5-0.3-0.7-0.5v2.4H331v-6.8H332.2z
				 M333.5,249.4c-0.4,0-0.7,0.1-1,0.4s-0.4,0.6-0.4,1.1c0,0.4,0.1,0.8,0.4,1.1s0.6,0.4,1,0.4c0.4,0,0.7-0.1,1-0.4
				c0.3-0.3,0.4-0.6,0.4-1.1c0-0.4-0.1-0.8-0.4-1.1C334.2,249.5,333.9,249.4,333.5,249.4z"/>
		</g>
		<g enable-background="new    ">
			<path fill="#396289" d="M336.6,248.4h1.3v2.4c0,0.5,0,0.8,0.1,1c0.1,0.2,0.2,0.3,0.3,0.4c0.1,0.1,0.3,0.2,0.5,0.2
				c0.2,0,0.4,0,0.5-0.1s0.3-0.2,0.3-0.4c0.1-0.1,0.1-0.5,0.1-0.9v-2.4h1.3v2.1c0,0.9-0.1,1.5-0.2,1.8c-0.2,0.4-0.4,0.7-0.7,0.9
				s-0.7,0.3-1.2,0.3c-0.5,0-1-0.1-1.3-0.4s-0.6-0.6-0.7-1c-0.1-0.3-0.1-0.9-0.1-1.6V248.4z"/>
			<path fill="#396289" d="M345.3,249.1l-0.8,0.8c-0.3-0.3-0.6-0.5-0.9-0.5c-0.1,0-0.3,0-0.3,0.1c-0.1,0.1-0.1,0.1-0.1,0.2
				c0,0.1,0,0.1,0.1,0.2s0.2,0.1,0.4,0.2l0.5,0.2c0.5,0.2,0.8,0.5,1,0.7c0.2,0.2,0.3,0.5,0.3,0.9c0,0.4-0.2,0.8-0.5,1.1
				c-0.3,0.3-0.8,0.4-1.3,0.4c-0.7,0-1.3-0.3-1.7-0.9l0.8-0.8c0.1,0.2,0.3,0.3,0.5,0.4c0.2,0.1,0.4,0.2,0.5,0.2c0.2,0,0.3,0,0.4-0.1
				c0.1-0.1,0.2-0.2,0.2-0.3c0-0.2-0.2-0.4-0.5-0.6l-0.4-0.2c-0.8-0.4-1.2-0.9-1.2-1.5c0-0.4,0.2-0.7,0.5-1c0.3-0.3,0.7-0.4,1.2-0.4
				c0.3,0,0.6,0.1,0.9,0.2C344.9,248.6,345.1,248.8,345.3,249.1z"/>
			<path fill="#396289" d="M349.5,249.1l-0.8,0.8c-0.3-0.3-0.6-0.5-0.9-0.5c-0.1,0-0.3,0-0.3,0.1c-0.1,0.1-0.1,0.1-0.1,0.2
				c0,0.1,0,0.1,0.1,0.2s0.2,0.1,0.4,0.2l0.5,0.2c0.5,0.2,0.8,0.5,1,0.7c0.2,0.2,0.3,0.5,0.3,0.9c0,0.4-0.2,0.8-0.5,1.1
				c-0.3,0.3-0.8,0.4-1.3,0.4c-0.7,0-1.3-0.3-1.7-0.9l0.8-0.8c0.1,0.2,0.3,0.3,0.5,0.4c0.2,0.1,0.4,0.2,0.5,0.2c0.2,0,0.3,0,0.4-0.1
				c0.1-0.1,0.2-0.2,0.2-0.3c0-0.2-0.2-0.4-0.5-0.6l-0.4-0.2c-0.8-0.4-1.2-0.9-1.2-1.5c0-0.4,0.2-0.7,0.5-1c0.3-0.3,0.7-0.4,1.2-0.4
				c0.3,0,0.6,0.1,0.9,0.2C349,248.6,349.3,248.8,349.5,249.1z"/>
		</g>
		<g enable-background="new    ">
			<path fill="#396289" d="M321.3,258.7l-0.8,0.8c-0.3-0.3-0.6-0.5-0.9-0.5c-0.1,0-0.3,0-0.3,0.1c-0.1,0.1-0.1,0.1-0.1,0.2
				c0,0.1,0,0.1,0.1,0.2s0.2,0.1,0.4,0.2l0.5,0.2c0.5,0.2,0.8,0.5,1,0.7c0.2,0.2,0.3,0.5,0.3,0.9c0,0.4-0.2,0.8-0.5,1.1
				c-0.3,0.3-0.8,0.4-1.3,0.4c-0.7,0-1.3-0.3-1.7-0.9l0.8-0.8c0.1,0.2,0.3,0.3,0.5,0.4c0.2,0.1,0.4,0.2,0.5,0.2c0.2,0,0.3,0,0.4-0.1
				c0.1-0.1,0.2-0.2,0.2-0.3c0-0.2-0.2-0.4-0.5-0.6l-0.4-0.2c-0.8-0.4-1.2-0.9-1.2-1.5c0-0.4,0.2-0.7,0.5-1c0.3-0.3,0.7-0.4,1.2-0.4
				c0.3,0,0.6,0.1,0.9,0.2C320.9,258.2,321.1,258.4,321.3,258.7z"/>
			<path fill="#396289" d="M322.5,256.2h1.3v1.8h0.7v1.1h-0.7v3.9h-1.3v-3.9h-0.6V258h0.6V256.2z"/>
		</g>
		<g enable-background="new    ">
			<path fill="#396289" d="M325.2,258h1.3v2.4c0,0.5,0,0.8,0.1,1c0.1,0.2,0.2,0.3,0.3,0.4c0.1,0.1,0.3,0.2,0.5,0.2
				c0.2,0,0.4,0,0.5-0.1s0.3-0.2,0.3-0.4c0.1-0.1,0.1-0.5,0.1-0.9V258h1.3v2.1c0,0.9-0.1,1.5-0.2,1.8c-0.2,0.4-0.4,0.7-0.7,0.9
				s-0.7,0.3-1.2,0.3c-0.5,0-1-0.1-1.3-0.4s-0.6-0.6-0.7-1c-0.1-0.3-0.1-0.9-0.1-1.6V258z"/>
		</g>
		<g enable-background="new    ">
			<path fill="#396289" d="M334.2,256.1h1.3v6.9h-1.3v-0.5c-0.2,0.2-0.5,0.4-0.7,0.5c-0.2,0.1-0.5,0.2-0.8,0.2
				c-0.6,0-1.2-0.2-1.7-0.7c-0.5-0.5-0.7-1.1-0.7-1.9c0-0.8,0.2-1.4,0.7-1.9c0.5-0.5,1-0.7,1.7-0.7c0.3,0,0.6,0.1,0.8,0.2
				s0.5,0.3,0.7,0.5V256.1z M332.9,259c-0.4,0-0.7,0.1-1,0.4c-0.3,0.3-0.4,0.6-0.4,1.1c0,0.4,0.1,0.8,0.4,1.1c0.3,0.3,0.6,0.4,1,0.4
				c0.4,0,0.7-0.1,1-0.4s0.4-0.6,0.4-1.1c0-0.4-0.1-0.8-0.4-1.1S333.3,259,332.9,259z"/>
			<path fill="#396289" d="M337.2,255.9c0.2,0,0.4,0.1,0.6,0.2c0.2,0.2,0.2,0.4,0.2,0.6c0,0.2-0.1,0.4-0.2,0.6s-0.3,0.2-0.6,0.2
				c-0.2,0-0.4-0.1-0.6-0.2c-0.2-0.2-0.2-0.4-0.2-0.6c0-0.2,0.1-0.4,0.2-0.6C336.8,256,337,255.9,337.2,255.9z M336.6,258h1.3v5
				h-1.3V258z"/>
			<path fill="#396289" d="M341.3,257.9c0.5,0,0.9,0.1,1.3,0.4c0.4,0.2,0.7,0.6,1,1s0.3,0.8,0.3,1.3c0,0.5-0.1,0.9-0.4,1.3
				c-0.2,0.4-0.6,0.7-1,1s-0.8,0.3-1.3,0.3c-0.7,0-1.3-0.3-1.8-0.8c-0.5-0.5-0.8-1.1-0.8-1.9c0-0.8,0.3-1.4,0.9-1.9
				C340.1,258.1,340.7,257.9,341.3,257.9z M341.3,259.1c-0.4,0-0.7,0.1-1,0.4s-0.4,0.6-0.4,1c0,0.4,0.1,0.8,0.4,1.1
				c0.3,0.3,0.6,0.4,1,0.4s0.7-0.1,1-0.4c0.3-0.3,0.4-0.6,0.4-1s-0.1-0.8-0.4-1C342,259.2,341.7,259.1,341.3,259.1z"/>
		</g>
	</g>
</g>
</svg>
