<?xml version="1.0" encoding="utf-8"?>
<!-- Generator: Adobe Illustrator 18.1.1, SVG Export Plug-In . SVG Version: 6.00 Build 0)  -->
<!DOCTYPE svg PUBLIC "-//W3C//DTD SVG 1.1//EN" "http://www.w3.org/Graphics/SVG/1.1/DTD/svg11.dtd">
<svg version="1.1" id="Layer_1" xmlns="http://www.w3.org/2000/svg" xmlns:xlink="http://www.w3.org/1999/xlink" x="0px" y="0px"
	 viewBox="17 45 343 234" enable-background="new 17 45 343 234" xml:space="preserve">
<g>
	<g>
		<g>
			<path fill="#FEE544" d="M187.1,141.4c-1.5-6.4-1-13.1-2.1-19.6c-2.3-14.6-12.9-28.8-25.1-36.4c-10.3-6.4-22.3-9.1-25-7.7
				c1.8-0.2,3.6-0.1,5.5,0.4c12.2,3.4,17.7,25,11.2,53.8c-6.5,28.7-26.1,53.7-38.5,51c5.4,2.6,15,4.8,23.2,3.5
				c7.2-1.1,13.6-4.1,20.4-6.8c6.7-2.7,12.5-7.6,19.2-9.9c4.8-1.7,12.5-1.8,15.5-6.9C195.6,156,188.7,148,187.1,141.4z"/>
			<g>
				<path fill="#FCCB42" d="M132.9,82.8c-0.4,1.4-10.3,49-10.3,49s18.5-29.2,23.1-38.6C145.8,89.5,137.5,82.3,132.9,82.8z"/>
				<path fill="#FCCB42" d="M147.6,100l-25,31.7l26.2-14.4C149.5,114.2,148.6,101.5,147.6,100z"/>
				<path fill="#FCCB42" d="M148.4,122.3c1.8,4.4-2.9,16-4.9,19.3l-21-9.9C122.6,131.8,142.6,123.7,148.4,122.3z"/>
				<path fill="#FCCB42" d="M141.6,146.1l-19-14.4c0,0,5.3,23.6,7.5,33.3C134.6,162.9,141.5,151,141.6,146.1z"/>
				<path fill="#FCCB42" d="M126.3,169.9c-1.5-14.3-3.7-38.2-3.7-38.2l-11.4,45.9C116.1,178,125.4,173.7,126.3,169.9z"/>
				<path fill="#FCCB42" d="M105.8,173.4l16.8-41.7c0,0-13.5,13.4-21.3,21C100,156,103.1,170.4,105.8,173.4z"/>
				<path fill="#FCCB42" d="M104.6,121.4c-2.8,6.5-3.8,14.7-2.8,20.7c6.5-3.8,20.8-10.3,20.8-10.3L104.6,121.4z"/>
				<path fill="#FCCB42" d="M106.5,114.3l16.1,17.5c0,0-6.3-26-8.8-35.5C111.7,97.9,107.4,108.4,106.5,114.3z"/>
				<path fill="#FCCB42" d="M116.9,92.7l5.7,39.1c0,0,6.1-48,6-48C121.4,84.1,117.4,90.9,116.9,92.7z"/>
			</g>
			<path fill="#FEE544" d="M44.4,126.1c-2.2,3.4-4.5,6.7-7.1,9.7c-5.1,5.9-13.4,6.8-8.3,20.4c2.2,5.8,12.1,3.3,17.3,6.6
				c7.5,4.9,13.4,11.9,20.8,17c8.5,5.8,15.3,7.5,27.1,9.1c4,0.5,15.5-0.4,24.6-4.4c0,0,3.6-78.6-25.3-105.1c-1.2-1.2-12,2.9-14,3.5
				c-5.1,1.8-10.5,4.2-14.9,7.5c-6.3,4.8-12.1,11.7-14.9,19.1C47.7,114.8,47.2,121.5,44.4,126.1z"/>
			<path fill="#FCCB42" d="M107.9,83.5c-0.3-6.6-8.8-13.4-14.4-16.1c-5.8-2.8-14.3-3.9-15.7-11.5c-2.2-12.1,13.3-13.3,20.3-7.4
				C108.7,57.3,107.4,71.4,107.9,83.5z"/>
			<path fill="#FEE544" d="M113,83.1c0-1.8,5.6-10.1,7.1-11.7c4-4.2,9.9-6.5,11-12.4c1.4-8.1-8.4-7.2-13.5-1.9
				C110.1,64.7,112.8,75.5,113,83.1z"/>
		</g>
		<rect y="192.8" fill="none" width="227.8" height="122.2"/>
		<text transform="matrix(1 0 0 1 20.0135 226.9443)" fill="#396289" font-family="'CenturyGothic-Bold'" font-size="46.4753">s</text>
		
			<text transform="matrix(1 0 0 1 40.4443 226.9443)" fill="#396289" font-family="'CenturyGothic-Bold'" font-size="46.4753" letter-spacing="-2">o</text>
		<text transform="matrix(1 0 0 1 67.8651 226.9443)" fill="#396289" font-family="'CenturyGothic-Bold'" font-size="46.4753">ur</text>
		
			<text transform="matrix(1 0 0 1 110.6468 226.9443)" fill="#396289" font-family="'CenturyGothic-Bold'" font-size="46.4753" letter-spacing="-2">p</text>
		<text transform="matrix(1 0 0 1 138.9891 226.9443)" fill="#396289" font-family="'CenturyGothic-Bold'" font-size="46.4753">uss</text>
		<text transform="matrix(1 0 0 1 47.8945 274.5654)" fill="#396289" font-family="'CenturyGothic-Bold'" font-size="46.4753">st</text>
		
			<text transform="matrix(1 0 0 1 82.3047 274.5654)" fill="#396289" font-family="'CenturyGothic-Bold'" font-size="46.4753" letter-spacing="-1">u</text>
		<text transform="matrix(1 0 0 1 108.3427 274.5654)" fill="#396289" font-family="'CenturyGothic-Bold'" font-size="46.4753">dio</text>
	</g>
	<g>
		<g>
			<path fill="#FEE544" d="M351.6,172.1c-0.3-1.3-0.2-2.7-0.4-4c-0.5-3-2.6-5.9-5.1-7.5c-2.1-1.3-4.5-1.8-5.1-1.5
				c0.4-0.1,0.8,0,1.2,0.1c2.5,0.7,3.6,5.1,2.3,11c-1.3,5.9-5.4,11-7.9,10.4c1.1,0.5,3.1,1,4.8,0.7c1.5-0.2,2.8-0.8,4.1-1.4
				c1.4-0.5,2.5-1.5,3.9-2c1-0.3,2.5-0.4,3.1-1.4C353.4,175.1,352,173.5,351.6,172.1z"/>
			<g>
				<path fill="#FCCB42" d="M340.6,160c-0.1,0.3-2.1,10.1-2.1,10.1s3.8-6,4.8-7.9C343.2,161.4,341.5,160,340.6,160z"/>
				<path fill="#FCCB42" d="M343.6,163.6l-5.1,6.5l5.4-3C343.9,166.5,343.7,163.9,343.6,163.6z"/>
				<path fill="#FCCB42" d="M343.7,168.2c0.4,0.9-0.6,3.3-1,3.9l-4.3-2C338.4,170.1,342.6,168.5,343.7,168.2z"/>
				<path fill="#FCCB42" d="M342.3,173.1l-3.9-2.9c0,0,1.1,4.8,1.5,6.8C340.9,176.5,342.3,174.1,342.3,173.1z"/>
				<path fill="#FCCB42" d="M339.2,177.9c-0.3-2.9-0.8-7.8-0.8-7.8l-2.4,9.4C337.1,179.6,339,178.7,339.2,177.9z"/>
				<path fill="#FCCB42" d="M335,178.6l3.5-8.5c0,0-2.8,2.8-4.4,4.3C333.8,175.1,334.4,178,335,178.6z"/>
				<path fill="#FCCB42" d="M334.7,168c-0.5,1.3-0.8,3-0.6,4.2c1.3-0.8,4.3-2.2,4.3-2.2L334.7,168z"/>
				<path fill="#FCCB42" d="M335.1,166.6l3.3,3.6c0,0-1.3-5.4-1.8-7.3C336.2,163.2,335.3,165.3,335.1,166.6z"/>
				<path fill="#FCCB42" d="M337.3,162.1l1.2,8l1.2-9.8C338.2,160.3,337.3,161.7,337.3,162.1z"/>
			</g>
			<path fill="#FEE544" d="M322.4,168.9c-0.5,0.7-0.9,1.4-1.5,2c-1.1,1.2-2.8,1.4-1.7,4.1c0.5,1.2,2.5,0.7,3.5,1.4
				c1.5,1,2.8,2.5,4.2,3.5c1.8,1.2,3.1,1.5,5.5,1.8c0.8,0.1,3.1-0.1,5-0.9c0,0,0.8-16.1-5.1-21.5c-0.2-0.2-2.5,0.6-2.8,0.8
				c-1.1,0.4-2.2,0.8-3.1,1.5c-1.3,1-2.5,2.4-3.1,3.9C323.1,166.6,323,168,322.4,168.9z"/>
			<path fill="#FCCB42" d="M335.4,160.2c-0.1-1.4-1.8-2.8-2.9-3.3c-1.2-0.5-2.9-0.8-3.2-2.4c-0.5-2.5,2.7-2.7,4.1-1.5
				C335.6,154.9,335.3,157.7,335.4,160.2z"/>
			<path fill="#FEE544" d="M336.4,160.1c0-0.4,1.2-2.1,1.5-2.4c0.8-0.8,2.1-1.3,2.2-2.5c0.3-1.6-1.7-1.5-2.8-0.4
				C335.9,156.3,336.4,158.6,336.4,160.1z"/>
		</g>
		<rect x="313.3" y="182.6" fill="none" width="46.7" height="25"/>
		<text transform="matrix(1 0 0 1 317.4042 189.6162)" fill="#396289" font-family="'CenturyGothic-Bold'" font-size="9.5228">s</text>
		<text transform="matrix(1 0 0 1 321.6288 189.6162)" fill="#396289" font-family="'CenturyGothic-Bold'" font-size="9.5228">o</text>
		<text transform="matrix(1 0 0 1 327.2353 189.6162)" fill="#396289" font-family="'CenturyGothic-Bold'" font-size="9.5228">ur</text>
		<text transform="matrix(1 0 0 1 335.9912 189.6162)" fill="#396289" font-family="'CenturyGothic-Bold'" font-size="9.5228">p</text>
		<text transform="matrix(1 0 0 1 341.7519 189.6162)" fill="#396289" font-family="'CenturyGothic-Bold'" font-size="9.5228">uss</text>
		<text transform="matrix(1 0 0 1 323.0879 199.3709)" fill="#396289" font-family="'CenturyGothic-Bold'" font-size="9.5228">st</text>
		<text transform="matrix(1 0 0 1 330.1542 199.3709)" fill="#396289" font-family="'CenturyGothic-Bold'" font-size="9.5228">u</text>
		<text transform="matrix(1 0 0 1 335.5311 199.3709)" fill="#396289" font-family="'CenturyGothic-Bold'" font-size="9.5228">dio</text>
	</g>
</g>
</svg>
