<?xml version="1.0" encoding="utf-8"?>
<!-- Generator: Adobe Illustrator 18.1.1, SVG Export Plug-In . SVG Version: 6.00 Build 0)  -->
<!DOCTYPE svg PUBLIC "-//W3C//DTD SVG 1.1//EN" "http://www.w3.org/Graphics/SVG/1.1/DTD/svg11.dtd">
<svg version="1.1" id="Layer_1" xmlns="http://www.w3.org/2000/svg" xmlns:xlink="http://www.w3.org/1999/xlink" x="0px" y="0px"
	 viewBox="0 0 360 360" enable-background="new 0 0 360 360" xml:space="preserve">
<g>
	<g>
		<g>
			<path fill="#FEE544" d="M184.6,205.6c-1.5-6.3-1-13-2.1-19.4c-2.3-14.5-12.8-28.5-24.9-36.1c-10.2-6.3-22.1-9-24.8-7.6
				c1.8-0.2,3.6-0.1,5.5,0.4c12.1,3.4,17.5,24.8,11.1,53.3c-6.4,28.4-25.9,53.2-38.2,50.6c5.4,2.6,14.9,4.8,23,3.5
				c7.1-1.1,13.5-4.1,20.2-6.7c6.6-2.7,12.4-7.5,19-9.8c4.8-1.7,12.4-1.8,15.4-6.8C193,220.1,186.2,212.2,184.6,205.6z"/>
			<g>
				<path fill="#FCCB42" d="M130.9,147.5c-0.4,1.4-10.2,48.6-10.2,48.6s18.3-28.9,22.9-38.3C143.7,154.2,135.5,147.1,130.9,147.5z"
					/>
				<path fill="#FCCB42" d="M145.5,164.6L120.7,196l26-14.3C147.3,178.7,146.5,166.1,145.5,164.6z"/>
				<path fill="#FCCB42" d="M146.3,186.7c1.8,4.4-2.9,15.9-4.9,19.1l-20.8-9.8C120.7,196.1,140.5,188.1,146.3,186.7z"/>
				<path fill="#FCCB42" d="M139.5,210.3L120.7,196c0,0,5.3,23.4,7.4,33C132.6,226.9,139.4,215.1,139.5,210.3z"/>
				<path fill="#FCCB42" d="M124.3,233.9c-1.5-14.2-3.7-37.9-3.7-37.9l-11.3,45.5C114.2,241.9,123.5,237.6,124.3,233.9z"/>
				<path fill="#FCCB42" d="M104,237.4l16.7-41.3c0,0-13.4,13.3-21.1,20.8C98.3,220.1,101.4,234.4,104,237.4z"/>
				<path fill="#FCCB42" d="M102.8,185.8c-2.8,6.4-3.8,14.6-2.8,20.5c6.4-3.8,20.6-10.2,20.6-10.2L102.8,185.8z"/>
				<path fill="#FCCB42" d="M104.7,178.8l16,17.3c0,0-6.2-25.8-8.7-35.2C109.9,162.5,105.6,172.9,104.7,178.8z"/>
				<path fill="#FCCB42" d="M115,157.4l5.7,38.8c0,0,6-47.6,5.9-47.6C119.5,148.8,115.5,155.6,115,157.4z"/>
			</g>
			<path fill="#FEE544" d="M43.2,190.5c-2.2,3.4-4.5,6.6-7,9.6c-5.1,5.8-13.3,6.7-8.2,20.2c2.2,5.7,12,3.3,17.1,6.5
				c7.4,4.9,13.3,11.8,20.6,16.9c8.4,5.7,15.2,7.4,26.9,9c4,0.5,15.4-0.4,24.4-4.4c0,0,3.6-77.9-25.1-104.2
				c-1.2-1.2-11.9,2.9-13.9,3.5c-5.1,1.8-10.4,4.2-14.8,7.4c-6.2,4.8-12,11.6-14.8,18.9C46.4,179.3,45.9,185.9,43.2,190.5z"/>
			<path fill="#FCCB42" d="M106.1,148.2c-0.3-6.5-8.7-13.3-14.3-16c-5.7-2.8-14.2-3.9-15.6-11.4c-2.2-12,13.2-13.2,20.1-7.3
				C106.9,122.3,105.6,136.2,106.1,148.2z"/>
			<path fill="#FEE544" d="M111.2,147.8c0-1.8,5.6-10,7-11.6c4-4.2,9.8-6.4,10.9-12.3c1.4-8-8.3-7.1-13.4-1.9
				C108.3,129.6,111,140.3,111.2,147.8z"/>
		</g>
		<rect x="-0.8" y="256.6" fill="none" width="225.8" height="121.1"/>
		<g enable-background="new    ">
			<path fill="#396289" d="M37.1,269.4l-3.8,3.8c-1.5-1.5-2.9-2.3-4.2-2.3c-0.7,0-1.2,0.1-1.6,0.4c-0.4,0.3-0.6,0.7-0.6,1.1
				c0,0.3,0.1,0.6,0.4,0.9s0.9,0.7,1.8,1.1l2.2,1.1c2.4,1.2,4,2.4,4.9,3.6c0.9,1.2,1.3,2.6,1.3,4.3c0,2.2-0.8,4-2.4,5.4
				c-1.6,1.5-3.7,2.2-6.4,2.2c-3.6,0-6.4-1.4-8.5-4.2l3.8-4.1c0.7,0.8,1.6,1.5,2.5,2c1,0.5,1.8,0.8,2.6,0.8c0.8,0,1.5-0.2,2-0.6
				c0.5-0.4,0.7-0.8,0.7-1.3c0-0.9-0.9-1.9-2.7-2.8l-2.1-1c-4-2-5.9-4.5-5.9-7.5c0-1.9,0.7-3.6,2.2-5s3.4-2.1,5.7-2.1
				c1.6,0,3.1,0.3,4.5,1C34.9,267.1,36.1,268.1,37.1,269.4z"/>
		</g>
		<g enable-background="new    ">
			<path fill="#396289" d="M53.8,265.3c2.3,0,4.5,0.6,6.5,1.7c2,1.2,3.6,2.7,4.8,4.7c1.1,2,1.7,4.1,1.7,6.4c0,2.3-0.6,4.5-1.7,6.5
				c-1.1,2-2.7,3.6-4.7,4.7s-4.2,1.7-6.5,1.7c-3.5,0-6.5-1.2-9-3.7s-3.7-5.5-3.7-9.1c0-3.8,1.4-7,4.2-9.6
				C47.8,266.4,50.7,265.3,53.8,265.3z M53.9,271.1c-1.9,0-3.5,0.7-4.8,2s-1.9,3-1.9,5.1c0,2.1,0.6,3.9,1.9,5.2c1.3,1.3,2.8,2,4.8,2
				s3.5-0.7,4.8-2c1.3-1.3,1.9-3.1,1.9-5.2s-0.6-3.8-1.9-5.1C57.5,271.8,55.9,271.1,53.9,271.1z"/>
		</g>
		<g enable-background="new    ">
			<path fill="#396289" d="M69.5,266h6.2v11.8c0,2.3,0.2,3.9,0.5,4.8c0.3,0.9,0.8,1.6,1.5,2.1c0.7,0.5,1.6,0.7,2.6,0.7
				c1,0,1.9-0.2,2.6-0.7c0.7-0.5,1.2-1.2,1.6-2.1c0.3-0.7,0.4-2.2,0.4-4.5v-12H91v10.4c0,4.3-0.3,7.2-1,8.8c-0.8,1.9-2,3.4-3.6,4.4
				c-1.6,1-3.6,1.5-6.1,1.5c-2.7,0-4.9-0.6-6.5-1.8c-1.7-1.2-2.8-2.9-3.5-5c-0.5-1.5-0.7-4.2-0.7-8.1V266z"/>
			<path fill="#396289" d="M95.7,266h5.3v3.1c0.6-1.2,1.3-2.1,2.3-2.8s2-0.9,3.1-0.9c0.8,0,1.6,0.2,2.5,0.6l-1.9,5.3
				c-0.7-0.4-1.3-0.5-1.8-0.5c-0.9,0-1.7,0.6-2.4,1.8s-1,3.5-1,6.9l0,1.2v9.9h-6.1V266z"/>
		</g>
		<g enable-background="new    ">
			<path fill="#396289" d="M118,266v2.7c1.1-1.1,2.3-1.9,3.6-2.5c1.3-0.6,2.7-0.8,4.1-0.8c3.2,0,5.9,1.2,8.1,3.6s3.4,5.5,3.4,9.3
				c0,3.6-1.2,6.7-3.5,9.1c-2.3,2.5-5,3.7-8.2,3.7c-1.4,0-2.7-0.3-3.9-0.8c-1.2-0.5-2.4-1.3-3.6-2.5v11.5h-6.1V266H118z M124.5,271
				c-1.9,0-3.5,0.7-4.8,2c-1.3,1.3-1.9,3-1.9,5.2c0,2.2,0.6,3.9,1.9,5.3c1.3,1.3,2.9,2,4.8,2c1.9,0,3.5-0.7,4.7-2
				c1.3-1.4,1.9-3.1,1.9-5.2c0-2.1-0.6-3.8-1.9-5.2C128,271.7,126.4,271,124.5,271z"/>
		</g>
		<g enable-background="new    ">
			<path fill="#396289" d="M140,266h6.2v11.8c0,2.3,0.2,3.9,0.5,4.8c0.3,0.9,0.8,1.6,1.5,2.1c0.7,0.5,1.6,0.7,2.6,0.7
				c1,0,1.9-0.2,2.6-0.7c0.7-0.5,1.2-1.2,1.6-2.1c0.3-0.7,0.4-2.2,0.4-4.5v-12h6.1v10.4c0,4.3-0.3,7.2-1,8.8c-0.8,1.9-2,3.4-3.6,4.4
				c-1.6,1-3.6,1.5-6.1,1.5c-2.7,0-4.9-0.6-6.5-1.8c-1.7-1.2-2.8-2.9-3.5-5c-0.5-1.5-0.7-4.2-0.7-8.1V266z"/>
			<path fill="#396289" d="M182.7,269.4l-3.8,3.8c-1.5-1.5-2.9-2.3-4.2-2.3c-0.7,0-1.2,0.1-1.6,0.4c-0.4,0.3-0.6,0.7-0.6,1.1
				c0,0.3,0.1,0.6,0.4,0.9s0.9,0.7,1.8,1.1l2.2,1.1c2.4,1.2,4,2.4,4.9,3.6s1.3,2.6,1.3,4.3c0,2.2-0.8,4-2.4,5.4
				c-1.6,1.5-3.7,2.2-6.4,2.2c-3.6,0-6.4-1.4-8.5-4.2l3.8-4.1c0.7,0.8,1.6,1.5,2.5,2c1,0.5,1.8,0.8,2.6,0.8c0.8,0,1.5-0.2,2-0.6
				c0.5-0.4,0.7-0.8,0.7-1.3c0-0.9-0.9-1.9-2.7-2.8l-2.1-1c-4-2-5.9-4.5-5.9-7.5c0-1.9,0.7-3.6,2.2-5s3.4-2.1,5.7-2.1
				c1.6,0,3.1,0.3,4.5,1C180.5,267.1,181.7,268.1,182.7,269.4z"/>
			<path fill="#396289" d="M202.9,269.4l-3.8,3.8c-1.5-1.5-2.9-2.3-4.2-2.3c-0.7,0-1.2,0.1-1.6,0.4c-0.4,0.3-0.6,0.7-0.6,1.1
				c0,0.3,0.1,0.6,0.4,0.9s0.9,0.7,1.8,1.1l2.2,1.1c2.4,1.2,4,2.4,4.9,3.6s1.3,2.6,1.3,4.3c0,2.2-0.8,4-2.4,5.4
				c-1.6,1.5-3.7,2.2-6.4,2.2c-3.6,0-6.4-1.4-8.5-4.2l3.8-4.1c0.7,0.8,1.6,1.5,2.5,2c1,0.5,1.8,0.8,2.6,0.8c0.8,0,1.5-0.2,2-0.6
				s0.7-0.8,0.7-1.3c0-0.9-0.9-1.9-2.7-2.8l-2.1-1c-4-2-5.9-4.5-5.9-7.5c0-1.9,0.7-3.6,2.2-5s3.4-2.1,5.7-2.1c1.6,0,3.1,0.3,4.5,1
				S202,268.1,202.9,269.4z"/>
		</g>
		<g enable-background="new    ">
			<path fill="#396289" d="M64.7,316.6l-3.8,3.8c-1.5-1.5-2.9-2.3-4.2-2.3c-0.7,0-1.2,0.1-1.6,0.4c-0.4,0.3-0.6,0.7-0.6,1.1
				c0,0.3,0.1,0.6,0.4,0.9s0.9,0.7,1.8,1.1l2.2,1.1c2.4,1.2,4,2.4,4.9,3.6c0.9,1.2,1.3,2.6,1.3,4.3c0,2.2-0.8,4-2.4,5.4
				c-1.6,1.5-3.7,2.2-6.4,2.2c-3.6,0-6.4-1.4-8.5-4.2l3.8-4.1c0.7,0.8,1.6,1.5,2.5,2c1,0.5,1.8,0.8,2.6,0.8c0.8,0,1.5-0.2,2-0.6
				c0.5-0.4,0.7-0.8,0.7-1.3c0-0.9-0.9-1.9-2.7-2.8l-2.1-1c-4-2-5.9-4.5-5.9-7.5c0-1.9,0.7-3.6,2.2-5s3.4-2.1,5.7-2.1
				c1.6,0,3.1,0.3,4.5,1C62.6,314.3,63.7,315.3,64.7,316.6z"/>
			<path fill="#396289" d="M70.7,304.1h6.1v9h3.6v5.3h-3.6v19.2h-6.1v-19.2h-3.1v-5.3h3.1V304.1z"/>
		</g>
		<g enable-background="new    ">
			<path fill="#396289" d="M83.8,313.2H90v11.8c0,2.3,0.2,3.9,0.5,4.8c0.3,0.9,0.8,1.6,1.5,2.1c0.7,0.5,1.6,0.7,2.6,0.7
				c1,0,1.9-0.2,2.6-0.7c0.7-0.5,1.2-1.2,1.6-2.1c0.3-0.7,0.4-2.2,0.4-4.5v-12h6.1v10.4c0,4.3-0.3,7.2-1,8.8c-0.8,1.9-2,3.4-3.6,4.4
				c-1.6,1-3.6,1.5-6.1,1.5c-2.7,0-4.9-0.6-6.5-1.8c-1.7-1.2-2.8-2.9-3.5-5c-0.5-1.5-0.7-4.2-0.7-8.1V313.2z"/>
		</g>
		<g enable-background="new    ">
			<path fill="#396289" d="M127.7,303.7h6.1v33.9h-6.1V335c-1.2,1.1-2.4,2-3.6,2.5c-1.2,0.5-2.5,0.8-3.9,0.8c-3.2,0-5.9-1.2-8.2-3.7
				s-3.5-5.5-3.5-9.1c0-3.8,1.1-6.9,3.3-9.3s4.9-3.6,8.1-3.6c1.5,0,2.8,0.3,4.1,0.8c1.3,0.6,2.5,1.4,3.6,2.5V303.7z M121.3,318.2
				c-1.9,0-3.5,0.7-4.7,2c-1.3,1.3-1.9,3.1-1.9,5.2c0,2.1,0.6,3.9,1.9,5.2c1.3,1.4,2.9,2,4.7,2c1.9,0,3.5-0.7,4.8-2
				c1.3-1.3,1.9-3.1,1.9-5.3c0-2.1-0.6-3.9-1.9-5.2C124.8,318.9,123.2,318.2,121.3,318.2z"/>
			<path fill="#396289" d="M142.5,303.1c1.1,0,2,0.4,2.8,1.2s1.2,1.7,1.2,2.8c0,1.1-0.4,2-1.1,2.8s-1.7,1.2-2.7,1.2
				c-1.1,0-2-0.4-2.8-1.2s-1.2-1.7-1.2-2.9c0-1.1,0.4-2,1.1-2.8S141.4,303.1,142.5,303.1z M139.4,313.2h6.1v24.5h-6.1V313.2z"/>
			<path fill="#396289" d="M162.6,312.5c2.3,0,4.5,0.6,6.5,1.7c2,1.2,3.6,2.7,4.8,4.7c1.1,2,1.7,4.1,1.7,6.4c0,2.3-0.6,4.5-1.7,6.5
				c-1.1,2-2.7,3.6-4.7,4.7s-4.2,1.7-6.5,1.7c-3.5,0-6.5-1.2-9-3.7s-3.7-5.5-3.7-9.1c0-3.8,1.4-7,4.2-9.6
				C156.6,313.6,159.4,312.5,162.6,312.5z M162.7,318.3c-1.9,0-3.5,0.7-4.8,2s-1.9,3-1.9,5.1c0,2.1,0.6,3.9,1.9,5.2
				c1.3,1.3,2.8,2,4.8,2s3.5-0.7,4.8-2c1.3-1.3,1.9-3.1,1.9-5.2s-0.6-3.8-1.9-5.1C166.3,319,164.7,318.3,162.7,318.3z"/>
		</g>
	</g>
	<g>
		<g>
			<path fill="#FEE544" d="M347.7,236.1c-0.3-1.3-0.2-2.7-0.4-4c-0.5-3-2.6-5.8-5.1-7.4c-2.1-1.3-4.5-1.8-5.1-1.5
				c0.4-0.1,0.8,0,1.2,0.1c2.5,0.7,3.6,5.1,2.3,10.9c-1.3,5.8-5.4,10.9-7.8,10.3c1.1,0.5,3.1,1,4.8,0.7c1.5-0.2,2.8-0.8,4.1-1.4
				c1.4-0.5,2.5-1.5,3.9-2c1-0.3,2.5-0.4,3.1-1.4C349.5,239,348.1,237.5,347.7,236.1z"/>
			<g>
				<path fill="#FCCB42" d="M336.8,224.1c-0.1,0.3-2.1,10-2.1,10s3.8-5.9,4.8-7.8C339.3,225.5,337.7,224.1,336.8,224.1z"/>
				<path fill="#FCCB42" d="M339.7,227.6l-5.1,6.4l5.4-3C340,230.5,339.8,227.9,339.7,227.6z"/>
				<path fill="#FCCB42" d="M339.8,232.2c0.4,0.9-0.6,3.3-1,3.9l-4.3-2C334.6,234.1,338.8,232.5,339.8,232.2z"/>
				<path fill="#FCCB42" d="M338.5,237.1l-3.9-2.9c0,0,1.1,4.8,1.5,6.7C337.1,240.4,338.5,238,338.5,237.1z"/>
				<path fill="#FCCB42" d="M335.4,241.8c-0.3-2.9-0.8-7.7-0.8-7.7l-2.4,9.3C333.3,243.5,335.2,242.6,335.4,241.8z"/>
				<path fill="#FCCB42" d="M331.2,242.5l3.5-8.4c0,0-2.8,2.8-4.4,4.3C330,239,330.6,241.9,331.2,242.5z"/>
				<path fill="#FCCB42" d="M330.9,232c-0.5,1.3-0.8,3-0.6,4.2c1.3-0.8,4.3-2.2,4.3-2.2L330.9,232z"/>
				<path fill="#FCCB42" d="M331.3,230.6l3.3,3.6c0,0-1.3-5.4-1.8-7.2C332.4,227.2,331.5,229.3,331.3,230.6z"/>
				<path fill="#FCCB42" d="M333.5,226.2l1.2,7.9l1.2-9.7C334.4,224.4,333.5,225.8,333.5,226.2z"/>
			</g>
			<path fill="#FEE544" d="M318.7,232.9c-0.5,0.7-0.9,1.4-1.5,2c-1.1,1.2-2.8,1.4-1.7,4.1c0.5,1.2,2.5,0.7,3.5,1.4
				c1.5,1,2.8,2.5,4.2,3.5c1.8,1.2,3.1,1.5,5.5,1.8c0.8,0.1,3.1-0.1,5-0.9c0,0,0.8-16-5.1-21.3c-0.2-0.2-2.5,0.6-2.8,0.8
				c-1.1,0.4-2.2,0.8-3.1,1.5c-1.3,1-2.5,2.4-3.1,3.9C319.4,230.6,319.3,232,318.7,232.9z"/>
			<path fill="#FCCB42" d="M331.6,224.3c-0.1-1.4-1.8-2.8-2.9-3.3c-1.2-0.5-2.9-0.8-3.2-2.4c-0.5-2.5,2.7-2.7,4.1-1.5
				C331.8,219,331.5,221.8,331.6,224.3z"/>
			<path fill="#FEE544" d="M332.6,224.2c0-0.4,1.2-2.1,1.5-2.4c0.8-0.8,2.1-1.3,2.2-2.5c0.3-1.6-1.7-1.5-2.8-0.4
				C332.1,220.4,332.6,222.7,332.6,224.2z"/>
		</g>
		<rect x="309.7" y="246.5" fill="none" width="46.3" height="24.8"/>
		<g enable-background="new    ">
			<path fill="#396289" d="M317.5,249.1l-0.8,0.8c-0.3-0.3-0.6-0.5-0.9-0.5c-0.1,0-0.3,0-0.3,0.1c-0.1,0.1-0.1,0.1-0.1,0.2
				c0,0.1,0,0.1,0.1,0.2s0.2,0.1,0.4,0.2l0.5,0.2c0.5,0.2,0.8,0.5,1,0.7c0.2,0.2,0.3,0.5,0.3,0.9c0,0.4-0.2,0.8-0.5,1.1
				c-0.3,0.3-0.8,0.4-1.3,0.4c-0.7,0-1.3-0.3-1.8-0.9l0.8-0.8c0.1,0.2,0.3,0.3,0.5,0.4c0.2,0.1,0.4,0.2,0.5,0.2c0.2,0,0.3,0,0.4-0.1
				s0.2-0.2,0.2-0.3c0-0.2-0.2-0.4-0.5-0.6l-0.4-0.2c-0.8-0.4-1.2-0.9-1.2-1.5c0-0.4,0.2-0.7,0.5-1s0.7-0.4,1.2-0.4
				c0.3,0,0.6,0.1,0.9,0.2C317,248.6,317.3,248.8,317.5,249.1z"/>
		</g>
		<g enable-background="new    ">
			<path fill="#396289" d="M321,248.3c0.5,0,0.9,0.1,1.3,0.4c0.4,0.2,0.7,0.6,1,1c0.2,0.4,0.3,0.8,0.3,1.3c0,0.5-0.1,0.9-0.4,1.3
				c-0.2,0.4-0.6,0.7-1,1c-0.4,0.2-0.9,0.3-1.3,0.3c-0.7,0-1.3-0.3-1.8-0.8s-0.8-1.1-0.8-1.9c0-0.8,0.3-1.4,0.9-2
				C319.7,248.5,320.3,248.3,321,248.3z M321,249.5c-0.4,0-0.7,0.1-1,0.4c-0.3,0.3-0.4,0.6-0.4,1c0,0.4,0.1,0.8,0.4,1.1
				c0.3,0.3,0.6,0.4,1,0.4c0.4,0,0.7-0.1,1-0.4c0.3-0.3,0.4-0.6,0.4-1.1c0-0.4-0.1-0.8-0.4-1C321.7,249.6,321.4,249.5,321,249.5z"/>
		</g>
		<g enable-background="new    ">
			<path fill="#396289" d="M324.2,248.4h1.3v2.4c0,0.5,0,0.8,0.1,1c0.1,0.2,0.2,0.3,0.3,0.4c0.1,0.1,0.3,0.2,0.5,0.2
				c0.2,0,0.4,0,0.5-0.1s0.3-0.2,0.3-0.4c0.1-0.1,0.1-0.5,0.1-0.9v-2.5h1.3v2.1c0,0.9-0.1,1.5-0.2,1.8c-0.2,0.4-0.4,0.7-0.7,0.9
				c-0.3,0.2-0.7,0.3-1.3,0.3c-0.5,0-1-0.1-1.3-0.4c-0.3-0.2-0.6-0.6-0.7-1c-0.1-0.3-0.1-0.9-0.1-1.7V248.4z"/>
			<path fill="#396289" d="M329.5,248.4h1.1v0.6c0.1-0.2,0.3-0.4,0.5-0.6c0.2-0.1,0.4-0.2,0.6-0.2c0.2,0,0.3,0,0.5,0.1l-0.4,1.1
				c-0.1-0.1-0.3-0.1-0.4-0.1c-0.2,0-0.4,0.1-0.5,0.4s-0.2,0.7-0.2,1.4l0,0.2v2h-1.2V248.4z"/>
		</g>
		<g enable-background="new    ">
			<path fill="#396289" d="M334.1,248.4v0.6c0.2-0.2,0.5-0.4,0.7-0.5c0.3-0.1,0.5-0.2,0.8-0.2c0.7,0,1.2,0.2,1.7,0.7
				c0.5,0.5,0.7,1.1,0.7,1.9c0,0.7-0.2,1.4-0.7,1.9c-0.5,0.5-1,0.8-1.7,0.8c-0.3,0-0.6-0.1-0.8-0.2s-0.5-0.3-0.7-0.5v2.4h-1.2v-6.8
				H334.1z M335.4,249.4c-0.4,0-0.7,0.1-1,0.4c-0.3,0.3-0.4,0.6-0.4,1.1c0,0.4,0.1,0.8,0.4,1.1c0.3,0.3,0.6,0.4,1,0.4
				c0.4,0,0.7-0.1,1-0.4c0.3-0.3,0.4-0.6,0.4-1.1c0-0.4-0.1-0.8-0.4-1.1C336.1,249.6,335.8,249.4,335.4,249.4z"/>
		</g>
		<g enable-background="new    ">
			<path fill="#396289" d="M338.5,248.4h1.3v2.4c0,0.5,0,0.8,0.1,1c0.1,0.2,0.2,0.3,0.3,0.4c0.1,0.1,0.3,0.2,0.5,0.2
				c0.2,0,0.4,0,0.5-0.1s0.3-0.2,0.3-0.4c0.1-0.1,0.1-0.5,0.1-0.9v-2.5h1.3v2.1c0,0.9-0.1,1.5-0.2,1.8c-0.2,0.4-0.4,0.7-0.7,0.9
				c-0.3,0.2-0.7,0.3-1.3,0.3c-0.5,0-1-0.1-1.3-0.4c-0.3-0.2-0.6-0.6-0.7-1c-0.1-0.3-0.1-0.9-0.1-1.7V248.4z"/>
			<path fill="#396289" d="M347.3,249.1l-0.8,0.8c-0.3-0.3-0.6-0.5-0.9-0.5c-0.1,0-0.3,0-0.3,0.1c-0.1,0.1-0.1,0.1-0.1,0.2
				c0,0.1,0,0.1,0.1,0.2s0.2,0.1,0.4,0.2l0.5,0.2c0.5,0.2,0.8,0.5,1,0.7c0.2,0.2,0.3,0.5,0.3,0.9c0,0.4-0.2,0.8-0.5,1.1
				c-0.3,0.3-0.8,0.4-1.3,0.4c-0.7,0-1.3-0.3-1.8-0.9l0.8-0.8c0.1,0.2,0.3,0.3,0.5,0.4c0.2,0.1,0.4,0.2,0.5,0.2c0.2,0,0.3,0,0.4-0.1
				s0.2-0.2,0.2-0.3c0-0.2-0.2-0.4-0.5-0.6l-0.4-0.2c-0.8-0.4-1.2-0.9-1.2-1.5c0-0.4,0.2-0.7,0.5-1s0.7-0.4,1.2-0.4
				c0.3,0,0.6,0.1,0.9,0.2C346.8,248.6,347.1,248.8,347.3,249.1z"/>
			<path fill="#396289" d="M351.4,249.1l-0.8,0.8c-0.3-0.3-0.6-0.5-0.9-0.5c-0.1,0-0.3,0-0.3,0.1c-0.1,0.1-0.1,0.1-0.1,0.2
				c0,0.1,0,0.1,0.1,0.2s0.2,0.1,0.4,0.2l0.5,0.2c0.5,0.2,0.8,0.5,1,0.7c0.2,0.2,0.3,0.5,0.3,0.9c0,0.4-0.2,0.8-0.5,1.1
				c-0.3,0.3-0.8,0.4-1.3,0.4c-0.7,0-1.3-0.3-1.8-0.9l0.8-0.8c0.1,0.2,0.3,0.3,0.5,0.4c0.2,0.1,0.4,0.2,0.5,0.2c0.2,0,0.3,0,0.4-0.1
				s0.2-0.2,0.2-0.3c0-0.2-0.2-0.4-0.5-0.6l-0.4-0.2c-0.8-0.4-1.2-0.9-1.2-1.5c0-0.4,0.2-0.7,0.5-1s0.7-0.4,1.2-0.4
				c0.3,0,0.6,0.1,0.9,0.2C351,248.6,351.2,248.8,351.4,249.1z"/>
		</g>
		<g enable-background="new    ">
			<path fill="#396289" d="M323.1,258.8l-0.8,0.8c-0.3-0.3-0.6-0.5-0.9-0.5c-0.1,0-0.3,0-0.3,0.1c-0.1,0.1-0.1,0.1-0.1,0.2
				c0,0.1,0,0.1,0.1,0.2s0.2,0.1,0.4,0.2l0.5,0.2c0.5,0.2,0.8,0.5,1,0.7c0.2,0.2,0.3,0.5,0.3,0.9c0,0.4-0.2,0.8-0.5,1.1
				c-0.3,0.3-0.8,0.4-1.3,0.4c-0.7,0-1.3-0.3-1.8-0.9l0.8-0.8c0.1,0.2,0.3,0.3,0.5,0.4c0.2,0.1,0.4,0.2,0.5,0.2c0.2,0,0.3,0,0.4-0.1
				s0.2-0.2,0.2-0.3c0-0.2-0.2-0.4-0.5-0.6l-0.4-0.2c-0.8-0.4-1.2-0.9-1.2-1.5c0-0.4,0.2-0.7,0.5-1s0.7-0.4,1.2-0.4
				c0.3,0,0.6,0.1,0.9,0.2C322.7,258.3,322.9,258.5,323.1,258.8z"/>
			<path fill="#396289" d="M324.4,256.2h1.3v1.8h0.7v1.1h-0.7v3.9h-1.3v-3.9h-0.6v-1.1h0.6V256.2z"/>
		</g>
		<g enable-background="new    ">
			<path fill="#396289" d="M327,258.1h1.3v2.4c0,0.5,0,0.8,0.1,1c0.1,0.2,0.2,0.3,0.3,0.4c0.1,0.1,0.3,0.2,0.5,0.2
				c0.2,0,0.4,0,0.5-0.1s0.3-0.2,0.3-0.4c0.1-0.1,0.1-0.5,0.1-0.9v-2.5h1.3v2.1c0,0.9-0.1,1.5-0.2,1.8c-0.2,0.4-0.4,0.7-0.7,0.9
				c-0.3,0.2-0.7,0.3-1.3,0.3c-0.5,0-1-0.1-1.3-0.4c-0.3-0.2-0.6-0.6-0.7-1c-0.1-0.3-0.1-0.9-0.1-1.7V258.1z"/>
		</g>
		<g enable-background="new    ">
			<path fill="#396289" d="M336.1,256.1h1.3v7h-1.3v-0.5c-0.2,0.2-0.5,0.4-0.7,0.5s-0.5,0.2-0.8,0.2c-0.6,0-1.2-0.3-1.7-0.8
				c-0.5-0.5-0.7-1.1-0.7-1.9c0-0.8,0.2-1.4,0.7-1.9c0.5-0.5,1-0.7,1.7-0.7c0.3,0,0.6,0.1,0.8,0.2c0.3,0.1,0.5,0.3,0.7,0.5V256.1z
				 M334.8,259.1c-0.4,0-0.7,0.1-1,0.4c-0.3,0.3-0.4,0.6-0.4,1.1c0,0.4,0.1,0.8,0.4,1.1c0.3,0.3,0.6,0.4,1,0.4c0.4,0,0.7-0.1,1-0.4
				c0.3-0.3,0.4-0.6,0.4-1.1c0-0.4-0.1-0.8-0.4-1.1C335.5,259.2,335.2,259.1,334.8,259.1z"/>
			<path fill="#396289" d="M339.1,256c0.2,0,0.4,0.1,0.6,0.2c0.2,0.2,0.2,0.4,0.2,0.6c0,0.2-0.1,0.4-0.2,0.6
				c-0.2,0.2-0.3,0.2-0.6,0.2c-0.2,0-0.4-0.1-0.6-0.2c-0.2-0.2-0.2-0.4-0.2-0.6c0-0.2,0.1-0.4,0.2-0.6
				C338.7,256.1,338.9,256,339.1,256z M338.5,258.1h1.3v5h-1.3V258.1z"/>
			<path fill="#396289" d="M343.2,258c0.5,0,0.9,0.1,1.3,0.4c0.4,0.2,0.7,0.6,1,1c0.2,0.4,0.3,0.8,0.3,1.3c0,0.5-0.1,0.9-0.4,1.3
				c-0.2,0.4-0.6,0.7-1,1c-0.4,0.2-0.9,0.3-1.3,0.3c-0.7,0-1.3-0.3-1.8-0.8s-0.8-1.1-0.8-1.9c0-0.8,0.3-1.4,0.9-2
				C342,258.2,342.6,258,343.2,258z M343.3,259.1c-0.4,0-0.7,0.1-1,0.4c-0.3,0.3-0.4,0.6-0.4,1c0,0.4,0.1,0.8,0.4,1.1
				c0.3,0.3,0.6,0.4,1,0.4c0.4,0,0.7-0.1,1-0.4c0.3-0.3,0.4-0.6,0.4-1.1c0-0.4-0.1-0.8-0.4-1C344,259.3,343.7,259.1,343.3,259.1z"/>
		</g>
	</g>
</g>
</svg>
