<?xml version="1.0" encoding="utf-8"?>
<!-- Generator: Adobe Illustrator 18.1.1, SVG Export Plug-In . SVG Version: 6.00 Build 0)  -->
<!DOCTYPE svg PUBLIC "-//W3C//DTD SVG 1.1//EN" "http://www.w3.org/Graphics/SVG/1.1/DTD/svg11.dtd">
<svg version="1.1" id="Layer_1" xmlns="http://www.w3.org/2000/svg" xmlns:xlink="http://www.w3.org/1999/xlink" x="0px" y="0px"
	 viewBox="37.1 27.2 68 68" enable-background="new 37.1 27.2 68 68" xml:space="preserve">
<g>
	<g>
		<path fill="#FEF7B4" d="M99.6,28.6c2.3,0,4.2,1.9,4.2,4.2v56.8c0,2.3-1.9,4.2-4.2,4.2H42.7c-2.3,0-4.2-1.9-4.2-4.2V32.8
			c0-2.3,1.9-4.2,4.2-4.2L99.6,28.6 M99.6,27.2H42.7c-3.1,0-5.6,2.5-5.6,5.6v56.8c0,3.1,2.5,5.6,5.6,5.6h56.8c3.1,0,5.6-2.5,5.6-5.6
			V32.8C105.2,29.7,102.7,27.2,99.6,27.2L99.6,27.2z"/>
	</g>
	<path fill="#123759" d="M99.6,93.8H42.7c-2.3,0-4.2-1.9-4.2-4.2V32.8c0-2.3,1.9-4.2,4.2-4.2h56.8c2.3,0,4.2,1.9,4.2,4.2v56.8
		C103.7,91.9,101.9,93.8,99.6,93.8z"/>
</g>
<g>
	<g>
		<path fill="#77B8B7" d="M83.3,76.1c0.2,0.4,0,0.9-0.5,1L53.7,88.7c-0.4,0.2-0.9,0-1-0.5L35.8,45.8c-0.2-0.4,0-0.9,0.5-1l29.1-11.6
			c0.4-0.2,0.9,0,1,0.5L83.3,76.1z"/>
	</g>
	
		<rect x="45.4" y="38.2" transform="matrix(-0.9826 0.1859 -0.1859 -0.9826 134.5095 111.1893)" fill="#123759" width="33.3" height="47.4"/>
	<g>
		<path fill="#123759" d="M80.8,80.9c0.1,0.4-0.2,0.9-0.6,0.9L49,87.7c-0.4,0.1-0.9-0.2-0.9-0.6l-8.5-45c-0.1-0.4,0.2-0.9,0.6-0.9
			l31.2-5.9c0.4-0.1,0.9,0.2,0.9,0.6L80.8,80.9z"/>
	</g>
	<g>
		<path fill="#FEF7B4" d="M81.8,81.4c0.1,0.4-0.2,0.9-0.6,0.9L50,88.2c-0.4,0.1-0.9-0.2-0.9-0.6l-8.5-45c-0.1-0.4,0.2-0.9,0.6-0.9
			l31.2-5.9c0.4-0.1,0.9,0.2,0.9,0.6L81.8,81.4z"/>
	</g>
	<g>
		<path fill="#123759" d="M78.6,87.7c0,0.4-0.4,0.8-0.8,0.8H46.1c-0.4,0-0.8-0.4-0.8-0.8V41.9c0-0.4,0.4-0.8,0.8-0.8h31.7
			c0.4,0,0.8,0.4,0.8,0.8C78.6,41.9,78.6,87.7,78.6,87.7z"/>
	</g>
	<rect x="47" y="41.1" fill="#123759" width="33.3" height="48.3"/>
	<g>
		<path fill="#77B8B7" d="M79.6,88.4c0,0.4-0.4,0.8-0.8,0.8H47.1c-0.4,0-0.8-0.4-0.8-0.8V42.6c0-0.4,0.4-0.8,0.8-0.8h31.7
			c0.4,0,0.8,0.4,0.8,0.8C79.6,42.6,79.6,88.4,79.6,88.4z"/>
	</g>
	<g>
		
			<line fill="none" stroke="#123759" stroke-width="0.556" stroke-linecap="round" stroke-miterlimit="10" x1="51.3" y1="51.4" x2="75.6" y2="51.4"/>
		
			<line fill="none" stroke="#123759" stroke-width="0.556" stroke-linecap="round" stroke-miterlimit="10" x1="51.3" y1="52.9" x2="75.6" y2="52.9"/>
		
			<line fill="none" stroke="#123759" stroke-width="0.556" stroke-linecap="round" stroke-miterlimit="10" x1="51.3" y1="54.5" x2="75.6" y2="54.5"/>
		
			<line fill="none" stroke="#123759" stroke-width="0.556" stroke-linecap="round" stroke-miterlimit="10" x1="51.3" y1="56.3" x2="75.6" y2="56.3"/>
		
			<line fill="none" stroke="#123759" stroke-width="0.556" stroke-linecap="round" stroke-miterlimit="10" x1="51.3" y1="57.9" x2="75.6" y2="57.9"/>
		
			<line fill="none" stroke="#123759" stroke-width="0.556" stroke-linecap="round" stroke-miterlimit="10" x1="51.3" y1="59.5" x2="75.6" y2="59.5"/>
		
			<line fill="none" stroke="#123759" stroke-width="0.556" stroke-linecap="round" stroke-miterlimit="10" x1="51.3" y1="60.9" x2="75.6" y2="60.9"/>
		
			<line fill="none" stroke="#123759" stroke-width="0.556" stroke-linecap="round" stroke-miterlimit="10" x1="51.3" y1="62.4" x2="75.6" y2="62.4"/>
		
			<line fill="none" stroke="#123759" stroke-width="0.556" stroke-linecap="round" stroke-miterlimit="10" x1="75.6" y1="64.1" x2="51.3" y2="64.1"/>
	</g>
</g>
<path fill="#FEF7B4" d="M109.9,79.1l-0.4,0.4c-0.9,0.9-2.3,0.9-3.2,0L84.1,57c-0.9-0.9-0.9-2.3,0-3.2l0.4-0.4c0.9-0.9,2.3-0.9,3.2,0
	L110,75.8C110.8,76.7,110.8,78.2,109.9,79.1z"/>
<circle fill="#123759" cx="77.5" cy="47.3" r="17.9"/>
<circle fill="#2B8D90" stroke="#A2DBE5" stroke-width="0.8378" stroke-miterlimit="10" cx="77.5" cy="47.3" r="16.3"/>
<g>
	<g>
		<defs>
			<circle id="SVGID_1_" cx="77.5" cy="47.3" r="13.9"/>
		</defs>
		<clipPath id="SVGID_2_">
			<use xlink:href="#SVGID_1_"  overflow="visible"/>
		</clipPath>
		<circle clip-path="url(#SVGID_2_)" fill="#123759" cx="77.5" cy="47.3" r="13.9"/>
	</g>
	<g>
		<defs>
			<circle id="SVGID_3_" cx="77.5" cy="47.3" r="13.9"/>
		</defs>
		<clipPath id="SVGID_4_">
			<use xlink:href="#SVGID_3_"  overflow="visible"/>
		</clipPath>
		<g clip-path="url(#SVGID_4_)">
			
				<rect x="42.3" y="38.3" transform="matrix(-0.9295 0.3689 -0.3689 -0.9295 136.5815 97.8765)" fill="#123759" width="33.3" height="47.4"/>
			
				<rect x="43.3" y="37.5" transform="matrix(-0.9295 0.3689 -0.3689 -0.9295 137.9041 95.7982)" fill="#77B8B7" width="33" height="47.2"/>
			
				<rect x="45.7" y="36.2" transform="matrix(-0.9826 0.1859 -0.1859 -0.9826 136.3141 109.0441)" fill="#123759" width="34.7" height="49.4"/>
			
				<rect x="43.7" y="37.9" transform="matrix(-0.9826 0.1859 -0.1859 -0.9826 131.0934 110.8999)" fill="#A1DBE5" width="33.3" height="47.4"/>
			<g>
				<path fill="#FEF7B4" d="M83.7,81.2c0.1,0.4-0.2,0.9-0.6,0.9l-32.5,6.2c-0.4,0.1-0.9-0.2-0.9-0.6l-8.9-47
					c-0.1-0.4,0.2-0.9,0.6-0.9l32.5-6.2c0.4-0.1,0.9,0.2,0.9,0.6L83.7,81.2z"/>
			</g>
			<rect x="45.5" y="41.3" fill="#123759" width="33.3" height="47.4"/>
			<rect x="47.4" y="39.2" fill="#123759" width="34.7" height="50.8"/>
			<g>
				<path fill="#77B8B7" d="M81.4,88.5c0,0.4-0.4,0.8-0.8,0.8H47.5c-0.4,0-0.8-0.4-0.8-0.8V40.7c0-0.4,0.4-0.8,0.8-0.8h33.1
					c0.4,0,0.8,0.4,0.8,0.8V88.5z"/>
			</g>
			<g>
				
					<line fill="none" stroke="#123759" stroke-width="0.582" stroke-linecap="round" stroke-miterlimit="10" x1="51.5" y1="50.6" x2="76.9" y2="50.6"/>
				
					<line fill="none" stroke="#123759" stroke-width="0.556" stroke-linecap="round" stroke-miterlimit="10" x1="51.5" y1="46.6" x2="56.8" y2="46.6"/>
				
					<line fill="none" stroke="#123759" stroke-width="0.582" stroke-linecap="round" stroke-miterlimit="10" x1="51.5" y1="52.2" x2="76.9" y2="52.2"/>
				
					<line fill="none" stroke="#123759" stroke-width="0.582" stroke-linecap="round" stroke-miterlimit="10" x1="51.5" y1="53.9" x2="76.9" y2="53.9"/>
				
					<line fill="none" stroke="#123759" stroke-width="0.582" stroke-linecap="round" stroke-miterlimit="10" x1="51.5" y1="55.8" x2="76.9" y2="55.8"/>
				
					<line fill="none" stroke="#123759" stroke-width="0.582" stroke-linecap="round" stroke-miterlimit="10" x1="51.5" y1="57.4" x2="76.9" y2="57.4"/>
				
					<line fill="none" stroke="#123759" stroke-width="0.582" stroke-linecap="round" stroke-miterlimit="10" x1="51.5" y1="59.1" x2="76.9" y2="59.1"/>
				
					<line fill="none" stroke="#123759" stroke-width="0.582" stroke-linecap="round" stroke-miterlimit="10" x1="51.5" y1="61.1" x2="76.9" y2="60.6"/>
				
					<line fill="none" stroke="#123759" stroke-width="0.556" stroke-linecap="round" stroke-miterlimit="10" x1="51.5" y1="62.6" x2="75.8" y2="62.6"/>
				
					<line fill="none" stroke="#123759" stroke-width="0.556" stroke-linecap="round" stroke-miterlimit="10" x1="75.8" y1="64.2" x2="51.5" y2="64.2"/>
			</g>
		</g>
	</g>
</g>
<g>
	<g>
		
			<line fill="none" stroke="#2B8D90" stroke-width="0.7002" stroke-linecap="round" stroke-linejoin="round" stroke-miterlimit="10" x1="52.6" y1="81.1" x2="52.6" y2="73.3"/>
		
			<line fill="none" stroke="#2B8D90" stroke-width="0.7002" stroke-linecap="round" stroke-linejoin="round" stroke-miterlimit="10" x1="55" y1="81.1" x2="55" y2="76.1"/>
		
			<line fill="none" stroke="#2B8D90" stroke-width="0.7002" stroke-linecap="round" stroke-linejoin="round" stroke-miterlimit="10" x1="57.4" y1="81.1" x2="57.4" y2="74.9"/>
		
			<line fill="none" stroke="#2B8D90" stroke-width="0.7002" stroke-linecap="round" stroke-linejoin="round" stroke-miterlimit="10" x1="59.8" y1="81.1" x2="59.8" y2="73.7"/>
		<polyline fill="none" stroke="#123759" stroke-width="0.5121" stroke-linecap="round" stroke-miterlimit="10" points="60.8,81.2 
			51.5,81.2 51.5,71.7 		"/>
		
			<line fill="none" stroke="#123759" stroke-width="0.3501" stroke-linecap="round" stroke-miterlimit="10" x1="51.8" y1="82.1" x2="53.3" y2="82.1"/>
		
			<line fill="none" stroke="#123759" stroke-width="0.3501" stroke-linecap="round" stroke-miterlimit="10" x1="54.2" y1="82.1" x2="55.7" y2="82.1"/>
		
			<line fill="none" stroke="#123759" stroke-width="0.3501" stroke-linecap="round" stroke-miterlimit="10" x1="56.6" y1="82.1" x2="58.1" y2="82.1"/>
		
			<line fill="none" stroke="#123759" stroke-width="0.3501" stroke-linecap="round" stroke-miterlimit="10" x1="59" y1="82.1" x2="60.5" y2="82.1"/>
	</g>
	
		<polyline fill="none" stroke="#2B8D90" stroke-width="0.7002" stroke-linecap="round" stroke-linejoin="round" stroke-miterlimit="10" points="
		66.7,79.6 67.7,77.4 69.1,78.6 70.9,75.6 72.7,77.7 74.5,73.1 	"/>
	<path fill="none" stroke="#2B8D90" stroke-width="0.691" stroke-linecap="round" stroke-miterlimit="10" d="M69.2,76.1"/>
	<path fill="none" stroke="#2B8D90" stroke-width="0.691" stroke-linecap="round" stroke-miterlimit="10" d="M69.2,81.1"/>
	<polyline fill="none" stroke="#123759" stroke-width="0.5121" stroke-linecap="round" stroke-miterlimit="10" points="75.4,81.2 
		65.7,81.2 65.7,71.6 	"/>
	<g>
		
			<line fill="none" stroke="#123759" stroke-width="0.3501" stroke-linecap="round" stroke-miterlimit="10" x1="63.4" y1="72.3" x2="65" y2="72.3"/>
		
			<line fill="none" stroke="#123759" stroke-width="0.3501" stroke-linecap="round" stroke-miterlimit="10" x1="63.4" y1="74" x2="65" y2="74"/>
		
			<line fill="none" stroke="#123759" stroke-width="0.3501" stroke-linecap="round" stroke-miterlimit="10" x1="63.4" y1="75.5" x2="65" y2="75.5"/>
		
			<line fill="none" stroke="#123759" stroke-width="0.3501" stroke-linecap="round" stroke-miterlimit="10" x1="63.4" y1="77.2" x2="65" y2="77.2"/>
		
			<line fill="none" stroke="#123759" stroke-width="0.3501" stroke-linecap="round" stroke-miterlimit="10" x1="63.4" y1="78.9" x2="65" y2="78.9"/>
		
			<line fill="none" stroke="#123759" stroke-width="0.3501" stroke-linecap="round" stroke-miterlimit="10" x1="63.4" y1="80.4" x2="65" y2="80.4"/>
	</g>
	
		<line fill="none" stroke="#123759" stroke-width="0.3501" stroke-linecap="round" stroke-miterlimit="10" x1="66.1" y1="82.1" x2="67.6" y2="82.1"/>
	
		<line fill="none" stroke="#123759" stroke-width="0.3501" stroke-linecap="round" stroke-miterlimit="10" x1="68.5" y1="82.1" x2="70" y2="82.1"/>
	
		<line fill="none" stroke="#123759" stroke-width="0.3501" stroke-linecap="round" stroke-miterlimit="10" x1="70.9" y1="82.1" x2="72.4" y2="82.1"/>
	
		<line fill="none" stroke="#123759" stroke-width="0.3501" stroke-linecap="round" stroke-miterlimit="10" x1="73.3" y1="82.1" x2="74.8" y2="82.1"/>
</g>
</svg>
