<?xml version="1.0" encoding="utf-8"?>
<!-- Generator: Adobe Illustrator 18.1.1, SVG Export Plug-In . SVG Version: 6.00 Build 0)  -->
<!DOCTYPE svg PUBLIC "-//W3C//DTD SVG 1.1//EN" "http://www.w3.org/Graphics/SVG/1.1/DTD/svg11.dtd">
<svg version="1.1" id="Layer_1" xmlns="http://www.w3.org/2000/svg" xmlns:xlink="http://www.w3.org/1999/xlink" x="0px" y="0px"
	 viewBox="36 32.2 72.6 76.1" enable-background="new 36 32.2 72.6 76.1" xml:space="preserve">
<g>
	<circle fill="#FEF7B4" cx="72.3" cy="71" r="36.3"/>
	<g>
		<g>
			<defs>
				<circle id="SVGID_1_" cx="72.3" cy="71" r="34.6"/>
			</defs>
			<clipPath id="SVGID_2_">
				<use xlink:href="#SVGID_1_"  overflow="visible"/>
			</clipPath>
			<circle clip-path="url(#SVGID_2_)" fill="#123759" cx="72.3" cy="71" r="34.6"/>
		</g>
		<g>
			<defs>
				<circle id="SVGID_3_" cx="72.3" cy="71" r="34.6"/>
			</defs>
			<clipPath id="SVGID_4_">
				<use xlink:href="#SVGID_3_"  overflow="visible"/>
			</clipPath>
			<path clip-path="url(#SVGID_4_)" fill="#77B8B7" d="M87.6,108.3H57c-2.7,0-4.8-2.2-4.8-4.8V37.3c0-2.7,2.2-4.8,4.8-4.8h30.6
				c2.7,0,4.8,2.2,4.8,4.8v66.2C92.4,106.2,90.2,108.3,87.6,108.3z"/>
		</g>
	</g>
	<path fill="#77B8B7" d="M92.4,40.5v47c0,2.4-1.9,4.3-4.3,4.3H56.5c-2.4,0-4.3-1.9-4.3-4.3v-51c0-2.4,1.9-4.3,4.3-4.3h27.1"/>
	<path fill="#2B8D90" d="M92.5,40.6h-4.6c-2.3,0-4.2-1.9-4.2-4.3v-3.9"/>
</g>
<g>
	<g>
		
			<line fill="none" stroke="#123759" stroke-width="0.484" stroke-linecap="round" stroke-miterlimit="10" x1="58.6" y1="38.7" x2="63.6" y2="38.7"/>
		
			<line fill="none" stroke="#123759" stroke-width="0.484" stroke-linecap="round" stroke-miterlimit="10" x1="64.8" y1="38.7" x2="66.8" y2="38.7"/>
		
			<line fill="none" stroke="#123759" stroke-width="0.484" stroke-linecap="round" stroke-miterlimit="10" x1="68" y1="38.7" x2="72" y2="38.7"/>
		
			<line fill="none" stroke="#123759" stroke-width="0.484" stroke-linecap="round" stroke-miterlimit="10" x1="59.5" y1="40.7" x2="67.9" y2="40.7"/>
		
			<line fill="none" stroke="#123759" stroke-width="0.484" stroke-linecap="round" stroke-miterlimit="10" x1="59.6" y1="46.2" x2="63.3" y2="46.2"/>
		
			<line fill="none" stroke="#123759" stroke-width="0.484" stroke-linecap="round" stroke-miterlimit="10" x1="64.6" y1="46.2" x2="72.2" y2="46.2"/>
		
			<line fill="none" stroke="#123759" stroke-width="0.484" stroke-linecap="round" stroke-miterlimit="10" x1="73.5" y1="46.2" x2="77.3" y2="46.2"/>
		
			<line fill="none" stroke="#123759" stroke-width="0.484" stroke-linecap="round" stroke-miterlimit="10" x1="78.5" y1="46.2" x2="86" y2="46.2"/>
		
			<line fill="none" stroke="#123759" stroke-width="0.484" stroke-linecap="round" stroke-miterlimit="10" x1="58.6" y1="44.3" x2="61.6" y2="44.3"/>
		
			<line fill="none" stroke="#123759" stroke-width="0.484" stroke-linecap="round" stroke-miterlimit="10" x1="62.8" y1="44.3" x2="67.9" y2="44.3"/>
		
			<line fill="none" stroke="#123759" stroke-width="0.484" stroke-linecap="round" stroke-miterlimit="10" x1="69" y1="44.3" x2="70.4" y2="44.3"/>
		
			<line fill="none" stroke="#123759" stroke-width="0.484" stroke-linecap="round" stroke-miterlimit="10" x1="71.6" y1="44.3" x2="74.5" y2="44.3"/>
		
			<line fill="none" stroke="#123759" stroke-width="0.484" stroke-linecap="round" stroke-miterlimit="10" x1="60.3" y1="42.6" x2="63.5" y2="42.6"/>
		
			<line fill="none" stroke="#123759" stroke-width="0.484" stroke-linecap="round" stroke-miterlimit="10" x1="64.7" y1="42.6" x2="66" y2="42.6"/>
		
			<line fill="none" stroke="#123759" stroke-width="0.484" stroke-linecap="round" stroke-miterlimit="10" x1="67.2" y1="42.6" x2="68.5" y2="42.6"/>
		
			<line fill="none" stroke="#123759" stroke-width="0.484" stroke-linecap="round" stroke-miterlimit="10" x1="69.1" y1="40.7" x2="75.3" y2="40.7"/>
		
			<line fill="none" stroke="#123759" stroke-width="0.484" stroke-linecap="round" stroke-miterlimit="10" x1="76.4" y1="40.7" x2="82.6" y2="40.7"/>
	</g>
	<g>
		
			<line fill="none" stroke="#123759" stroke-width="0.484" stroke-linecap="round" stroke-miterlimit="10" x1="58.6" y1="49.4" x2="63.6" y2="49.4"/>
		
			<line fill="none" stroke="#123759" stroke-width="0.484" stroke-linecap="round" stroke-miterlimit="10" x1="64.8" y1="49.4" x2="66.8" y2="49.4"/>
		
			<line fill="none" stroke="#123759" stroke-width="0.484" stroke-linecap="round" stroke-miterlimit="10" x1="68" y1="49.4" x2="72" y2="49.4"/>
		
			<line fill="none" stroke="#123759" stroke-width="0.484" stroke-linecap="round" stroke-miterlimit="10" x1="59.5" y1="51.4" x2="67.9" y2="51.4"/>
		
			<line fill="none" stroke="#123759" stroke-width="0.484" stroke-linecap="round" stroke-miterlimit="10" x1="59.6" y1="56.9" x2="63.3" y2="56.9"/>
		
			<line fill="none" stroke="#123759" stroke-width="0.484" stroke-linecap="round" stroke-miterlimit="10" x1="64.6" y1="56.9" x2="72.2" y2="56.9"/>
		
			<line fill="none" stroke="#123759" stroke-width="0.484" stroke-linecap="round" stroke-miterlimit="10" x1="73.5" y1="56.9" x2="77.3" y2="56.9"/>
		
			<line fill="none" stroke="#123759" stroke-width="0.484" stroke-linecap="round" stroke-miterlimit="10" x1="78.5" y1="56.9" x2="86" y2="56.9"/>
		
			<line fill="none" stroke="#123759" stroke-width="0.484" stroke-linecap="round" stroke-miterlimit="10" x1="58.6" y1="55" x2="61.6" y2="55"/>
		
			<line fill="none" stroke="#123759" stroke-width="0.484" stroke-linecap="round" stroke-miterlimit="10" x1="62.8" y1="55" x2="67.9" y2="55"/>
		
			<line fill="none" stroke="#123759" stroke-width="0.484" stroke-linecap="round" stroke-miterlimit="10" x1="69" y1="55" x2="70.4" y2="55"/>
		
			<line fill="none" stroke="#123759" stroke-width="0.484" stroke-linecap="round" stroke-miterlimit="10" x1="71.6" y1="55" x2="74.5" y2="55"/>
		
			<line fill="none" stroke="#123759" stroke-width="0.484" stroke-linecap="round" stroke-miterlimit="10" x1="60.3" y1="53.3" x2="63.5" y2="53.3"/>
		
			<line fill="none" stroke="#123759" stroke-width="0.484" stroke-linecap="round" stroke-miterlimit="10" x1="64.7" y1="53.3" x2="66" y2="53.3"/>
		
			<line fill="none" stroke="#123759" stroke-width="0.484" stroke-linecap="round" stroke-miterlimit="10" x1="67.2" y1="53.3" x2="68.5" y2="53.3"/>
		
			<line fill="none" stroke="#123759" stroke-width="0.484" stroke-linecap="round" stroke-miterlimit="10" x1="69.1" y1="51.4" x2="75.3" y2="51.4"/>
		
			<line fill="none" stroke="#123759" stroke-width="0.484" stroke-linecap="round" stroke-miterlimit="10" x1="76.4" y1="51.4" x2="82.6" y2="51.4"/>
	</g>
	<g>
		
			<line fill="none" stroke="#123759" stroke-width="0.484" stroke-linecap="round" stroke-miterlimit="10" x1="58.6" y1="59.5" x2="63.6" y2="59.5"/>
		
			<line fill="none" stroke="#123759" stroke-width="0.484" stroke-linecap="round" stroke-miterlimit="10" x1="64.8" y1="59.5" x2="66.8" y2="59.5"/>
		
			<line fill="none" stroke="#123759" stroke-width="0.484" stroke-linecap="round" stroke-miterlimit="10" x1="68" y1="59.5" x2="72" y2="59.5"/>
		
			<line fill="none" stroke="#123759" stroke-width="0.484" stroke-linecap="round" stroke-miterlimit="10" x1="59.5" y1="61.4" x2="67.9" y2="61.4"/>
		
			<line fill="none" stroke="#123759" stroke-width="0.484" stroke-linecap="round" stroke-miterlimit="10" x1="59.6" y1="67" x2="63.3" y2="67"/>
		
			<line fill="none" stroke="#123759" stroke-width="0.484" stroke-linecap="round" stroke-miterlimit="10" x1="64.6" y1="67" x2="72.2" y2="67"/>
		
			<line fill="none" stroke="#123759" stroke-width="0.484" stroke-linecap="round" stroke-miterlimit="10" x1="73.5" y1="67" x2="77.3" y2="67"/>
		
			<line fill="none" stroke="#123759" stroke-width="0.484" stroke-linecap="round" stroke-miterlimit="10" x1="78.5" y1="67" x2="86" y2="67"/>
		
			<line fill="none" stroke="#123759" stroke-width="0.484" stroke-linecap="round" stroke-miterlimit="10" x1="58.6" y1="65.1" x2="61.6" y2="65.1"/>
		
			<line fill="none" stroke="#123759" stroke-width="0.484" stroke-linecap="round" stroke-miterlimit="10" x1="62.8" y1="65.1" x2="67.9" y2="65.1"/>
		
			<line fill="none" stroke="#123759" stroke-width="0.484" stroke-linecap="round" stroke-miterlimit="10" x1="69" y1="65.1" x2="70.4" y2="65.1"/>
		
			<line fill="none" stroke="#123759" stroke-width="0.484" stroke-linecap="round" stroke-miterlimit="10" x1="71.6" y1="65.1" x2="74.5" y2="65.1"/>
		
			<line fill="none" stroke="#123759" stroke-width="0.484" stroke-linecap="round" stroke-miterlimit="10" x1="60.3" y1="63.3" x2="63.5" y2="63.3"/>
		
			<line fill="none" stroke="#123759" stroke-width="0.484" stroke-linecap="round" stroke-miterlimit="10" x1="64.7" y1="63.3" x2="66" y2="63.3"/>
		
			<line fill="none" stroke="#123759" stroke-width="0.484" stroke-linecap="round" stroke-miterlimit="10" x1="67.2" y1="63.3" x2="68.5" y2="63.3"/>
		
			<line fill="none" stroke="#123759" stroke-width="0.484" stroke-linecap="round" stroke-miterlimit="10" x1="69.1" y1="61.4" x2="75.3" y2="61.4"/>
		
			<line fill="none" stroke="#123759" stroke-width="0.484" stroke-linecap="round" stroke-miterlimit="10" x1="76.4" y1="61.4" x2="82.6" y2="61.4"/>
	</g>
	<g>
		
			<line fill="none" stroke="#123759" stroke-width="0.484" stroke-linecap="round" stroke-miterlimit="10" x1="58.6" y1="69.7" x2="63.6" y2="69.7"/>
		
			<line fill="none" stroke="#123759" stroke-width="0.484" stroke-linecap="round" stroke-miterlimit="10" x1="64.8" y1="69.7" x2="66.8" y2="69.7"/>
		
			<line fill="none" stroke="#123759" stroke-width="0.484" stroke-linecap="round" stroke-miterlimit="10" x1="68" y1="69.7" x2="72" y2="69.7"/>
		
			<line fill="none" stroke="#123759" stroke-width="0.484" stroke-linecap="round" stroke-miterlimit="10" x1="59.5" y1="71.7" x2="67.9" y2="71.7"/>
		
			<line fill="none" stroke="#123759" stroke-width="0.484" stroke-linecap="round" stroke-miterlimit="10" x1="59.6" y1="77.2" x2="63.3" y2="77.2"/>
		
			<line fill="none" stroke="#123759" stroke-width="0.484" stroke-linecap="round" stroke-miterlimit="10" x1="64.6" y1="77.2" x2="72.2" y2="77.2"/>
		
			<line fill="none" stroke="#123759" stroke-width="0.484" stroke-linecap="round" stroke-miterlimit="10" x1="73.5" y1="77.2" x2="77.3" y2="77.2"/>
		
			<line fill="none" stroke="#123759" stroke-width="0.484" stroke-linecap="round" stroke-miterlimit="10" x1="78.5" y1="77.2" x2="86" y2="77.2"/>
		
			<line fill="none" stroke="#123759" stroke-width="0.484" stroke-linecap="round" stroke-miterlimit="10" x1="58.6" y1="75.3" x2="61.6" y2="75.3"/>
		
			<line fill="none" stroke="#123759" stroke-width="0.484" stroke-linecap="round" stroke-miterlimit="10" x1="62.8" y1="75.3" x2="67.9" y2="75.3"/>
		
			<line fill="none" stroke="#123759" stroke-width="0.484" stroke-linecap="round" stroke-miterlimit="10" x1="69" y1="75.3" x2="70.4" y2="75.3"/>
		
			<line fill="none" stroke="#123759" stroke-width="0.484" stroke-linecap="round" stroke-miterlimit="10" x1="71.6" y1="75.3" x2="74.5" y2="75.3"/>
		
			<line fill="none" stroke="#123759" stroke-width="0.484" stroke-linecap="round" stroke-miterlimit="10" x1="60.3" y1="73.6" x2="63.5" y2="73.6"/>
		
			<line fill="none" stroke="#123759" stroke-width="0.484" stroke-linecap="round" stroke-miterlimit="10" x1="64.7" y1="73.6" x2="66" y2="73.6"/>
		
			<line fill="none" stroke="#123759" stroke-width="0.484" stroke-linecap="round" stroke-miterlimit="10" x1="67.2" y1="73.6" x2="68.5" y2="73.6"/>
		
			<line fill="none" stroke="#123759" stroke-width="0.484" stroke-linecap="round" stroke-miterlimit="10" x1="69.1" y1="71.7" x2="75.3" y2="71.7"/>
		
			<line fill="none" stroke="#123759" stroke-width="0.484" stroke-linecap="round" stroke-miterlimit="10" x1="76.4" y1="71.7" x2="82.6" y2="71.7"/>
	</g>
	<g>
		
			<line fill="none" stroke="#123759" stroke-width="0.484" stroke-linecap="round" stroke-miterlimit="10" x1="58.6" y1="79.4" x2="63.6" y2="79.4"/>
		
			<line fill="none" stroke="#123759" stroke-width="0.484" stroke-linecap="round" stroke-miterlimit="10" x1="64.8" y1="79.4" x2="66.8" y2="79.4"/>
		
			<line fill="none" stroke="#123759" stroke-width="0.484" stroke-linecap="round" stroke-miterlimit="10" x1="68" y1="79.4" x2="72" y2="79.4"/>
		
			<line fill="none" stroke="#123759" stroke-width="0.484" stroke-linecap="round" stroke-miterlimit="10" x1="59.5" y1="81.4" x2="67.9" y2="81.4"/>
		
			<line fill="none" stroke="#123759" stroke-width="0.484" stroke-linecap="round" stroke-miterlimit="10" x1="59.6" y1="86.9" x2="63.3" y2="86.9"/>
		
			<line fill="none" stroke="#123759" stroke-width="0.484" stroke-linecap="round" stroke-miterlimit="10" x1="64.6" y1="86.9" x2="72.2" y2="86.9"/>
		
			<line fill="none" stroke="#123759" stroke-width="0.484" stroke-linecap="round" stroke-miterlimit="10" x1="73.5" y1="86.9" x2="77.3" y2="86.9"/>
		
			<line fill="none" stroke="#123759" stroke-width="0.484" stroke-linecap="round" stroke-miterlimit="10" x1="78.5" y1="86.9" x2="86" y2="86.9"/>
		
			<line fill="none" stroke="#123759" stroke-width="0.484" stroke-linecap="round" stroke-miterlimit="10" x1="58.6" y1="85.1" x2="61.6" y2="85.1"/>
		
			<line fill="none" stroke="#123759" stroke-width="0.484" stroke-linecap="round" stroke-miterlimit="10" x1="62.8" y1="85.1" x2="67.9" y2="85.1"/>
		
			<line fill="none" stroke="#123759" stroke-width="0.484" stroke-linecap="round" stroke-miterlimit="10" x1="69" y1="85.1" x2="70.4" y2="85.1"/>
		
			<line fill="none" stroke="#123759" stroke-width="0.484" stroke-linecap="round" stroke-miterlimit="10" x1="71.6" y1="85.1" x2="74.5" y2="85.1"/>
		
			<line fill="none" stroke="#123759" stroke-width="0.484" stroke-linecap="round" stroke-miterlimit="10" x1="60.3" y1="83.3" x2="63.5" y2="83.3"/>
		
			<line fill="none" stroke="#123759" stroke-width="0.484" stroke-linecap="round" stroke-miterlimit="10" x1="64.7" y1="83.3" x2="66" y2="83.3"/>
		
			<line fill="none" stroke="#123759" stroke-width="0.484" stroke-linecap="round" stroke-miterlimit="10" x1="67.2" y1="83.3" x2="68.5" y2="83.3"/>
		
			<line fill="none" stroke="#123759" stroke-width="0.484" stroke-linecap="round" stroke-miterlimit="10" x1="69.1" y1="81.4" x2="75.3" y2="81.4"/>
		
			<line fill="none" stroke="#123759" stroke-width="0.484" stroke-linecap="round" stroke-miterlimit="10" x1="76.4" y1="81.4" x2="82.6" y2="81.4"/>
	</g>
	<g>
		
			<line fill="none" stroke="#123759" stroke-width="0.484" stroke-linecap="round" stroke-miterlimit="10" x1="58.6" y1="89.5" x2="63.6" y2="89.5"/>
		
			<line fill="none" stroke="#123759" stroke-width="0.484" stroke-linecap="round" stroke-miterlimit="10" x1="64.8" y1="89.5" x2="66.8" y2="89.5"/>
		
			<line fill="none" stroke="#123759" stroke-width="0.484" stroke-linecap="round" stroke-miterlimit="10" x1="68" y1="89.5" x2="72" y2="89.5"/>
		
			<line fill="none" stroke="#123759" stroke-width="0.484" stroke-linecap="round" stroke-miterlimit="10" x1="59.5" y1="91.4" x2="67.9" y2="91.4"/>
		
			<line fill="none" stroke="#123759" stroke-width="0.484" stroke-linecap="round" stroke-miterlimit="10" x1="59.6" y1="97" x2="63.3" y2="97"/>
		
			<line fill="none" stroke="#123759" stroke-width="0.484" stroke-linecap="round" stroke-miterlimit="10" x1="64.6" y1="97" x2="72.2" y2="97"/>
		
			<line fill="none" stroke="#123759" stroke-width="0.484" stroke-linecap="round" stroke-miterlimit="10" x1="73.5" y1="97" x2="77.3" y2="97"/>
		
			<line fill="none" stroke="#123759" stroke-width="0.484" stroke-linecap="round" stroke-miterlimit="10" x1="78.5" y1="97" x2="86" y2="97"/>
		
			<line fill="none" stroke="#123759" stroke-width="0.484" stroke-linecap="round" stroke-miterlimit="10" x1="58.6" y1="95.1" x2="61.6" y2="95.1"/>
		
			<line fill="none" stroke="#123759" stroke-width="0.484" stroke-linecap="round" stroke-miterlimit="10" x1="62.8" y1="95.1" x2="67.9" y2="95.1"/>
		
			<line fill="none" stroke="#123759" stroke-width="0.484" stroke-linecap="round" stroke-miterlimit="10" x1="69" y1="95.1" x2="70.4" y2="95.1"/>
		
			<line fill="none" stroke="#123759" stroke-width="0.484" stroke-linecap="round" stroke-miterlimit="10" x1="71.6" y1="95.1" x2="74.5" y2="95.1"/>
		
			<line fill="none" stroke="#123759" stroke-width="0.484" stroke-linecap="round" stroke-miterlimit="10" x1="60.3" y1="93.3" x2="63.5" y2="93.3"/>
		
			<line fill="none" stroke="#123759" stroke-width="0.484" stroke-linecap="round" stroke-miterlimit="10" x1="64.7" y1="93.3" x2="66" y2="93.3"/>
		
			<line fill="none" stroke="#123759" stroke-width="0.484" stroke-linecap="round" stroke-miterlimit="10" x1="67.2" y1="93.3" x2="68.5" y2="93.3"/>
		
			<line fill="none" stroke="#123759" stroke-width="0.484" stroke-linecap="round" stroke-miterlimit="10" x1="69.1" y1="91.4" x2="75.3" y2="91.4"/>
		
			<line fill="none" stroke="#123759" stroke-width="0.484" stroke-linecap="round" stroke-miterlimit="10" x1="76.4" y1="91.4" x2="82.6" y2="91.4"/>
	</g>
	<g>
		
			<line fill="none" stroke="#123759" stroke-width="0.484" stroke-linecap="round" stroke-miterlimit="10" x1="58.6" y1="99" x2="63.6" y2="99"/>
		
			<line fill="none" stroke="#123759" stroke-width="0.484" stroke-linecap="round" stroke-miterlimit="10" x1="64.8" y1="99" x2="66.8" y2="99"/>
		
			<line fill="none" stroke="#123759" stroke-width="0.484" stroke-linecap="round" stroke-miterlimit="10" x1="68" y1="99" x2="72" y2="99"/>
		
			<line fill="none" stroke="#123759" stroke-width="0.484" stroke-linecap="round" stroke-miterlimit="10" x1="59.5" y1="100.9" x2="67.9" y2="100.9"/>
		
			<line fill="none" stroke="#123759" stroke-width="0.484" stroke-linecap="round" stroke-miterlimit="10" x1="69.1" y1="100.9" x2="75.3" y2="100.9"/>
		
			<line fill="none" stroke="#123759" stroke-width="0.484" stroke-linecap="round" stroke-miterlimit="10" x1="76.4" y1="100.9" x2="82.6" y2="100.9"/>
	</g>
</g>
<g>
	
		<line fill="none" stroke="#FDF7B6" stroke-width="4.393" stroke-linecap="round" stroke-miterlimit="10" x1="75" y1="57.1" x2="69.1" y2="82.6"/>
	<g>
		<g>
			<g>
				<g>
					<path fill="#FEF7B4" d="M82.8,81c-0.6,0.3-1.1,0-1.1-0.7c0,0,0-2.1,0-3.1c0-0.3,0.1-0.6,0.2-0.9c0.2-0.3,0.4-0.5,0.8-0.7
						c1.9-0.9,5.7-2.7,7.6-3.6c0.4-0.2,2.2-1,2.2-1.1S90.8,70,90,69.7c-1.9-0.9-5.5-2.6-7.3-3.5c-0.4-0.2-0.7-0.4-0.8-0.7
						c-0.2-0.3-0.2-0.6-0.2-0.9c0-1.1,0-3.1,0-3.1c0-0.7,0.5-1,1.1-0.7l15.9,8.3c0.6,0.3,1.1,1.1,1.1,1.8l0,0c0,0.7-0.5,1.5-1.1,1.8
						L82.8,81z"/>
				</g>
			</g>
		</g>
		<g>
			<g>
				<g>
					<path fill="#FEF7B4" d="M46,72.7c-0.6-0.3-1.1-1.1-1.1-1.8l0,0c0-0.7,0.5-1.5,1.1-1.8l15.9-8.3c0.6-0.3,1.1,0,1.1,0.7
						c0,0,0,2.1,0,3.1c0,0.3-0.1,0.6-0.2,0.9c-0.2,0.3-0.4,0.5-0.8,0.7c-1.8,0.9-5.5,2.6-7.3,3.5c-1,0.3-2.7,1.1-2.7,1.2
						s1.9,1,2.2,1.1c1.9,0.9,5.7,2.7,7.6,3.6c0.4,0.2,0.7,0.4,0.8,0.7c0.2,0.3,0.2,0.6,0.2,0.9c0,1.1,0,3.1,0,3.1
						c0,0.7-0.5,1-1.1,0.7L46,72.7z"/>
				</g>
			</g>
		</g>
	</g>
</g>
</svg>
